<?xml version="1.0" encoding="utf-8"?>
<!-- Generator: Adobe Illustrator 23.0.0, SVG Export Plug-In . SVG Version: 6.00 Build 0)  -->
<svg version="1.1" id="Layer_1" xmlns="http://www.w3.org/2000/svg" xmlns:xlink="http://www.w3.org/1999/xlink" x="0px" y="0px"
	 viewBox="0 0 268 268" style="enable-background:new 0 0 268 268;" xml:space="preserve">
<style type="text/css">
	.st0{fill:#FFFFFF;}
	.st1{opacity:0.36;fill:#FFFFFF;enable-background:new    ;}
</style>
<title>mou go</title>
<path class="st0" d="M54,162.2l-15.6,4.7c-1.5-4.4-2.7-8.8-3.5-13.4l18.3-0.8c0.1,2.3,0.2,4.6,0.5,6.9
	C53.7,160.4,53.8,161.3,54,162.2z"/>
<path class="st0" d="M56,129.3c-1,3.7-1.8,7.4-2.3,11.2l-20.5-0.8c-0.1-1.7-0.1-3.4-0.1-5.1c0-2.9,0.1-5.8,0.4-8.6L56,129.3z"/>
<path class="st0" d="M65,108.6c-1,1.6-2,3.3-2.9,5.1s-1.6,3.2-2.3,4.9l-23.9-7.4c1.2-4.9,2.7-9.7,4.6-14.4L65,108.6z"/>
<path class="st0" d="M83,88.3c-3.5,2.8-6.8,5.9-9.7,9.3L48.8,80.5c3.6-5.6,7.7-10.9,12.3-15.7L83,88.3z"/>
<path class="st0" d="M108.1,74.6c-4.2,1.4-8.2,3.1-12.1,5.1L76.3,51.8c6.5-4.5,13.4-8.3,20.8-11.1L108.1,74.6z"/>
<path class="st0" d="M142,33.9l-1.7,37c-2.3-0.2-4.7-0.3-7.1-0.3c-3.2,0-6.3,0.2-9.5,0.6l-5.2-36.3c5.2-0.8,10.4-1.2,15.7-1.2
	C136.7,33.6,139.4,33.7,142,33.9z"/>
<path class="st0" d="M190.7,50.9l-18.5,29.9c-3.2-1.8-6.6-3.4-10-4.7c-1.6-0.6-3.2-1.2-4.9-1.7l12.8-34.1
	C177.3,43,184.3,46.6,190.7,50.9z"/>
<path class="st1" d="M54,162.2l-15.6,4.7c-1.5-4.4-2.7-8.8-3.5-13.4l18.3-0.8c0.1,2.3,0.2,4.6,0.5,6.9
	C53.7,160.4,53.8,161.3,54,162.2z"/>
<path class="st1" d="M56,129.3c-1,3.7-1.8,7.4-2.3,11.2l-20.5-0.8c-0.1-1.7-0.1-3.4-0.1-5.1c0-2.9,0.1-5.8,0.4-8.6L56,129.3z"/>
<path class="st1" d="M65,108.6c-1,1.6-2,3.3-2.9,5.1s-1.6,3.2-2.3,4.9l-23.9-7.4c1.2-4.9,2.7-9.7,4.6-14.4L65,108.6z"/>
<path class="st1" d="M83,88.3c-3.5,2.8-6.8,5.9-9.7,9.3L48.8,80.5c3.6-5.6,7.7-10.9,12.3-15.7L83,88.3z"/>
<path class="st1" d="M108.1,74.6c-4.2,1.4-8.2,3.1-12.1,5.1L76.3,51.8c6.5-4.5,13.4-8.3,20.8-11.1L108.1,74.6z"/>
<path class="st1" d="M142,33.9l-1.7,37c-2.3-0.2-4.7-0.3-7.1-0.3c-3.2,0-6.3,0.2-9.5,0.6l-5.2-36.3c5.2-0.8,10.4-1.2,15.7-1.2
	C136.7,33.6,139.4,33.7,142,33.9z"/>
<path class="st1" d="M190.7,50.9l-18.5,29.9c-3.2-1.8-6.6-3.4-10-4.7c-1.6-0.6-3.2-1.2-4.9-1.7l12.8-34.1
	C177.3,43,184.3,46.6,190.7,50.9z"/>
<path class="st0" d="M238,49.5C191.4-7.9,107-16.7,49.5,29.9c-28,22.8-45.7,55.9-49,91.8c-0.3,4-0.5,8.1-0.5,12.3
	c0,69.8,53.6,128,123.3,133.6c3.5,0.3,7.1,0.4,10.8,0.4c73.8,0,133.7-59.6,134-133.4V134C268,103.2,257.4,73.4,238,49.5z M134,243
	c-60.2,0-109-48.8-109-109S73.8,25,134,25s109,48.8,109,109S194.2,243,134,243z"/>
<path class="st0" d="M186.1,103.9l-1.4,1.1l-20.6,17l-1.8,1.5l-8.6,7.1c-1-5.5-4.2-10.4-9-13.4l11.3-5.5l1.1-0.5l1.8-0.9l21.6-10.5
	l0.8-0.4l1.3-0.6C184.2,100.2,185.3,102,186.1,103.9z"/>
<path class="st0" d="M154.1,134c0,1-0.1,2.1-0.2,3.1c-1.7,10.9-11.9,18.4-22.8,16.7c-10.9-1.7-18.4-11.9-16.7-22.8
	c0.6-3.6,2.1-7,4.4-9.7l0,0c6.5-7.7,17.6-9.4,26.1-4C150.6,120.8,154.1,127.2,154.1,134L154.1,134z"/>
<path class="st0" d="M133.9,134.4"/>
</svg>
