<svg xmlns="http://www.w3.org/2000/svg" viewBox="0 0 32 32"><defs><style>.cls-1{fill:#29abe2;}.cls-2{fill:#fff;}</style></defs><title>Administrasi</title><g id="Layer_2" data-name="Layer 2"><g id="Layer_1-2" data-name="Layer 1"><rect class="cls-1" width="32" height="32" rx="10"/><path class="cls-2" d="M21.47,8.45H10.53a2.34,2.34,0,1,0,0,4.68H21.47a2.34,2.34,0,0,0,0-4.68ZM10.79,12.09a1.3,1.3,0,1,1,1.3-1.3A1.3,1.3,0,0,1,10.79,12.09Z"/><path class="cls-2" d="M21.47,13.66H10.53a2.34,2.34,0,0,0,0,4.68H21.47a2.34,2.34,0,0,0,0-4.68ZM10.79,17.3a1.3,1.3,0,1,1,1.3-1.3A1.3,1.3,0,0,1,10.79,17.3Z"/><path class="cls-2" d="M21.47,18.87H10.53a2.34,2.34,0,0,0,0,4.68H21.47a2.34,2.34,0,0,0,0-4.68ZM10.79,22.51a1.3,1.3,0,1,1,1.3-1.3A1.3,1.3,0,0,1,10.79,22.51Z"/></g></g></svg>