<svg xmlns="http://www.w3.org/2000/svg" viewBox="0 0 32 32"><defs><style>.cls-1{fill:#8cc63f;}.cls-2{fill:#fff;}</style></defs><title>Ahli</title><g id="Layer_2" data-name="Layer 2"><g id="Layer_1-2" data-name="Layer 1"><rect class="cls-1" width="32" height="32" rx="10"/><circle class="cls-2" cx="13.65" cy="9.97" r="2.61"/><path class="cls-2" d="M17.3,15.72a5,5,0,0,0-7.31,0c-2.09,2.09-.89,6.91-.25,7.67,1.39,1.66,6.36,1.66,7.47,0C18.07,22.09,19.39,17.81,17.3,15.72ZM15,19.9c-.09.5-1.3,1.56-1.3,1.56s-1.21-1.06-1.31-1.56c-.15-.82,1-2.31,1.05-3.14,0-.29-.63-.77-.53-1s1.39-.35,1.57,0-.54.75-.54,1C13.9,17.59,15.11,19.08,15,19.9Z"/><circle class="cls-2" cx="20.11" cy="11.5" r="1.74"/><path class="cls-2" d="M22.54,15.32a3.35,3.35,0,0,0-4.86,0,1.87,1.87,0,0,0-.33.45l-.69,4.86s4.42,1.1,5.52,0C22.74,20.08,23.93,16.71,22.54,15.32Zm-2.43,4.2s-.79-.68-.85-1c-.1-.52.67-1.49.68-2,0-.19-.43-.51-.34-.67s.92-.24,1,0-.34.48-.34.67c0,.53.78,1.5.68,2C20.89,18.84,20.11,19.52,20.11,19.52Z"/></g></g></svg>