<svg xmlns="http://www.w3.org/2000/svg" viewBox="0 0 32 32"><defs><style>.cls-1{fill:#c1272d;}.cls-2{fill:#fff;}</style></defs><title>Dashboard</title><g id="Layer_2" data-name="Layer 2"><g id="Layer_1-2" data-name="Layer 1"><rect class="cls-1" width="32" height="32" rx="10"/><path class="cls-2" d="M22.38,23.55H9.62a1.18,1.18,0,0,1-1.17-1.17V9.62a1.17,1.17,0,1,1,2.33,0v11.6h11.6a1.17,1.17,0,1,1,0,2.33Z"/><path class="cls-2" d="M21.63,15.6,19,18.22a1.15,1.15,0,0,1-1.64,0l-1-1-2.56,2.56a1.17,1.17,0,0,1-1.65,0,1.18,1.18,0,0,1,0-1.65l3.39-3.39a1.16,1.16,0,0,1,1.64,0l1,1,2.53-2.53a1.16,1.16,0,0,1,1.64,1.65l-.73.73"/></g></g></svg>