<svg xmlns="http://www.w3.org/2000/svg" viewBox="0 0 32 32"><defs><style>.cls-1{fill:#f7931e;}.cls-2{fill:#fff;}</style></defs><title>Kegiatan</title><g id="Layer_2" data-name="Layer 2"><g id="Layer_1-2" data-name="Layer 1"><rect class="cls-1" width="32" height="32" rx="10"/><path class="cls-2" d="M15.73,18.45l2.25.89,1.39,3.22a1.05,1.05,0,1,1-1.93.83L16.4,21,15,20.41l-.89,2.25-3.22,1.39a1.15,1.15,0,0,1-.41.08,1,1,0,0,1-.42-2l2.42-1.05,1.34-3.39"/><path class="cls-2" d="M15.69,14.71,13.91,17.4a1.11,1.11,0,0,0-.13.27l2,.78,1.95-2.93.75,1.42a1.06,1.06,0,0,0,1.35.47L22,16.46a1.06,1.06,0,0,0,.55-1.39,1,1,0,0,0-1.38-.54l-1.32.57L18.71,13a1.05,1.05,0,0,0-.88-.56l-.27,0"/><path class="cls-2" d="M15.69,14.71l-1.17.11L13.4,16.5a1.07,1.07,0,0,1-.88.47,1,1,0,0,1-.58-.18,1.06,1.06,0,0,1-.29-1.46l1.4-2.1a1.07,1.07,0,0,1,.78-.46l3.86-.35Z"/><circle class="cls-2" cx="19.97" cy="9.76" r="1.89"/></g></g></svg>