<svg xmlns="http://www.w3.org/2000/svg" viewBox="0 0 32 32"><defs><style>.cls-1{fill:#f7931e;}.cls-2{fill:none;stroke:#fff;stroke-linecap:round;stroke-miterlimit:10;stroke-width:3px;}.cls-3{fill:#fff;}</style></defs><title>Modul</title><g id="Layer_2" data-name="Layer 2"><g id="Layer_1-2" data-name="Layer 1"><rect class="cls-1" width="32" height="32" rx="10"/><path class="cls-2" d="M19.94,22.23H13.82c-2.06,0-3.73-1.33-3.73-3V11.44c0-1.65,1.67-3,3.73-3h6.12"/><path class="cls-3" d="M22.51,11.08H13.08a3,3,0,0,1-2.14-.91,3,3,0,0,0-1.5,2.58v7.81a3,3,0,0,0,3,3h8.42a1.73,1.73,0,0,0,1.72-1.73V11.49A1.84,1.84,0,0,0,22.51,11.08Zm-2.57,4.06a.54.54,0,0,1-.54.53H12.6a.54.54,0,0,1-.54-.53V13.58a.54.54,0,0,1,.54-.53h6.8a.54.54,0,0,1,.54.53Z"/></g></g></svg>