<svg width="320" height="238" viewBox="0 0 320 238" fill="none" xmlns="http://www.w3.org/2000/svg">
<g clip-path="url(#clip0)">
<path opacity="0.1" d="M185.922 33.366C165.408 32.8364 145.869 27.9139 127.212 22.5284C108.555 17.1429 90.0752 11.1643 70.0518 8.30976C57.1731 6.47335 42.4432 6.21327 32.0685 11.3482C22.0806 16.2834 18.8538 24.8025 17.12 32.7317C15.814 38.685 15.0469 44.949 18.6224 50.5217C21.1075 54.3911 25.5135 57.6421 28.5628 61.3498C39.172 74.2459 31.6723 90.1455 20.1788 102.737C14.7902 108.643 8.52991 114.276 4.36801 120.565C0.206116 126.855 -1.71793 134.054 1.92413 140.471C5.53131 146.814 14.1309 151.6 23.4468 154.959C42.3671 161.781 64.6537 163.732 86.4014 164.839C134.528 167.287 182.908 166.225 231.161 165.156C249.02 164.763 266.954 164.366 284.521 162.301C294.278 161.163 304.348 159.352 311.432 154.984C320.422 149.44 322.65 140.052 316.624 133.1C306.519 121.437 278.587 118.538 271.515 106.023C267.629 99.1341 271.62 91.4618 277.272 85.0708C289.393 71.366 309.708 59.3421 310.776 43.674C311.511 32.9157 301.745 22.1383 286.645 17.0477C270.818 11.713 248.867 12.3822 237.196 21.2153C225.167 30.3212 204.038 33.8228 185.922 33.366Z" fill="#FFC928"/>
<g opacity="0.8">
<path opacity="0.8" d="M297.568 56.7033C297.568 56.7033 293.992 55.2507 282.619 60.4712C271.246 65.6918 269.826 65.029 266.881 64.2297C263.936 63.4304 262.295 63.2433 259.137 58.8854C259.137 58.8854 256.919 46.8108 254.757 44.93C252.595 43.0492 243.447 45.9989 243.447 45.9989C243.447 45.9989 232.473 48.5235 230.369 33.8418C230.369 33.8418 231.852 22.779 229.83 19.3821C229.83 19.3821 233.912 21.1424 240.645 18.3005C247.378 15.4587 252.766 21.3644 252.766 21.3644C252.766 21.3644 254.465 25.7635 254.288 28.3833C254.11 31.0031 255.185 31.9927 258.408 30.724C258.408 30.724 259.993 28.4785 257.752 24.7676C255.511 21.0567 253.923 18.291 254.548 15.408C255.172 12.5249 256.963 8.53176 262.722 6.52725C268.482 4.52275 276.308 4.14849 280.064 2.60071C283.82 1.05293 284.727 0.0157852 284.727 0.0157852C284.727 0.0157852 282.416 2.33429 287.862 12.1538C293.307 21.9734 289.837 26.2393 289.837 26.2393C289.837 26.2393 286.939 33.1472 274.153 32.5826C274.153 32.5826 261.832 33.033 268.548 38.2599C268.548 38.2599 272.85 37.3846 279.284 35.3388C285.719 33.2931 290.356 41.7361 291.51 47.6101C292.664 53.484 297.568 56.7033 297.568 56.7033Z" fill="#FFC928"/>
<path opacity="0.8" d="M281.009 7.45021L281.075 7.43118C281.57 9.30565 276.064 16.8352 271.357 22.8234L271.303 22.7821C277.94 14.3359 281.402 8.89016 281.009 7.45021Z" fill="#444053"/>
<path opacity="0.8" d="M271.398 22.6584L271.427 22.7345C267.667 27.5174 262.938 33.2265 259.153 37.4543C258.792 37.8571 258.434 38.279 258.091 38.723L257.98 38.6374C258.329 38.2029 258.687 37.7779 259.049 37.3687C262.833 33.1345 267.642 27.4382 271.398 22.6584Z" fill="#444053"/>
<path opacity="0.8" d="M258.072 38.5105L258.148 38.6374C251.261 47.2422 250.804 60.6013 250.788 60.7187L249.337 59.0567C249.352 58.9235 251.137 47.1724 258.072 38.5105Z" fill="#444053"/>
<path opacity="0.8" d="M289.583 52.0377C289.583 52.0377 281.462 47.813 275.132 49.3291C268.802 50.8452 254.554 43.9689 254.554 43.9689C254.554 43.9689 248.503 41.5109 247.286 38.7071C247.286 38.7071 243.137 34.3143 242.899 32.0466C242.661 29.7788 238.61 24.0571 235.986 23.851" stroke="#444053" stroke-miterlimit="10"/>
<path opacity="0.8" d="M288.407 56.1038C288.407 56.1038 284.318 53.3476 284.794 50.1315" stroke="#444053" stroke-miterlimit="10"/>
<path opacity="0.8" d="M282.134 59.6657C282.134 59.6657 276.283 57.5407 275.696 49.1992" stroke="#444053" stroke-miterlimit="10"/>
<path opacity="0.8" d="M272.694 61.8223C272.694 61.8223 267.103 57.1821 268.961 49.0721" stroke="#444053" stroke-miterlimit="10"/>
<path opacity="0.8" d="M261.35 59.5547C261.35 59.5547 257.629 51.7428 260.941 46.6618" stroke="#444053" stroke-miterlimit="10"/>
<path opacity="0.8" d="M289.678 46.8869C289.678 46.8869 285.446 48.2317 286.356 50.4582" stroke="#444053" stroke-miterlimit="10"/>
<path opacity="0.8" d="M284.572 39.205C284.572 39.205 278.91 41.0002 278.777 49.015" stroke="#444053" stroke-miterlimit="10"/>
<path opacity="0.8" d="M276.679 37.356C276.679 37.356 271.528 43.7184 271.892 49.5004" stroke="#444053" stroke-miterlimit="10"/>
<path opacity="0.8" d="M267.658 39.8522C267.658 39.8522 262.539 44.7461 263.192 47.4642" stroke="#444053" stroke-miterlimit="10"/>
<path opacity="0.8" d="M264.57 38.1236C264.57 38.1236 259.771 38.9831 259.103 37.4068" stroke="#444053" stroke-miterlimit="10"/>
<path opacity="0.8" d="M258.335 32.3257C258.335 32.3257 260.76 35.5387 261.385 34.8187" stroke="#444053" stroke-miterlimit="10"/>
<path opacity="0.8" d="M282.369 30.2927C282.369 30.2927 270.273 31.1713 267.537 27.5238" stroke="#444053" stroke-miterlimit="10"/>
<path opacity="0.8" d="M255.79 16.1375C255.79 16.1375 261.467 28.3263 265.588 29.8804" stroke="#444053" stroke-miterlimit="10"/>
<path opacity="0.8" d="M261.749 10.3301C261.749 10.3301 265.236 21.542 269.553 25.0435" stroke="#444053" stroke-miterlimit="10"/>
<path opacity="0.8" d="M287.459 21.0409C287.459 21.0409 278.267 24.9896 272.739 20.9933" stroke="#444053" stroke-width="0.75" stroke-miterlimit="10"/>
<path opacity="0.8" d="M269.94 7.93869C269.94 7.93869 272.041 16.1851 274.872 18.1737" stroke="#444053" stroke-width="0.75" stroke-miterlimit="10"/>
<path opacity="0.8" d="M286.071 11.7986C286.071 11.7986 280.901 13.7555 278.971 12.2553" stroke="#444053" stroke-width="0.75" stroke-miterlimit="10"/>
<path opacity="0.8" d="M253.907 35.0185C253.907 35.0185 253.907 42.2024 251.952 42.713" stroke="#444053" stroke-miterlimit="10"/>
<path opacity="0.8" d="M237.926 44.3273C237.926 44.3273 245.691 44.9934 249.27 40.9844" stroke="#444053" stroke-miterlimit="10"/>
<path opacity="0.8" d="M251.904 26.5311C251.904 26.5311 250.028 33.826 244.845 35.7797" stroke="#444053" stroke-miterlimit="10"/>
<path opacity="0.8" d="M233.269 36.652C233.269 36.652 238.765 38.555 243.492 33.696" stroke="#444053" stroke-miterlimit="10"/>
<path opacity="0.8" d="M245.796 20.267C245.796 20.267 245.276 26.455 241.913 29.3507" stroke="#444053" stroke-miterlimit="10"/>
<path opacity="0.8" d="M233.478 27.2226C233.478 27.2226 238.04 27.2511 239.108 25.7668" stroke="#444053" stroke-miterlimit="10"/>
</g>
<path opacity="0.1" d="M83.3234 238C121.487 238 152.424 235.799 152.424 233.084C152.424 230.369 121.487 228.168 83.3234 228.168C45.1601 228.168 14.2227 230.369 14.2227 233.084C14.2227 235.799 45.1601 238 83.3234 238Z" fill="#FFC928"/>
<path d="M123.354 206.318C124.305 204.609 125.443 202.997 126.362 201.266C127.202 199.68 127.859 197.999 128.616 196.368C129.913 193.577 131.51 190.939 132.965 188.224C133.916 186.444 134.835 184.506 134.651 182.496C134.477 180.593 133.361 178.943 132.93 177.104C131.174 169.552 126.949 162.619 124.372 155.314C123.713 153.462 123.072 151.597 122.248 149.808C120.663 146.367 118.444 143.275 116.226 140.207C115.426 139.036 114.536 137.929 113.563 136.896C112.767 136.1 111.873 135.399 111.151 134.537C109.661 132.76 108.964 130.204 107.1 128.827C107.068 128.91 107.033 128.989 106.998 129.072C105.664 125.662 101.188 123.413 98.5922 120.587C97.0809 118.862 95.6903 117.034 94.4303 115.116L88.7786 106.943C87.8055 105.535 86.8133 104.088 86.4203 102.411C85.9385 100.387 86.3854 98.2303 85.9099 96.2067C85.6059 94.9886 85.0134 93.8616 84.1824 92.9208C84.2363 92.905 84.2934 92.8828 84.3504 92.8701C85.4281 92.5815 86.5692 92.5307 87.6375 92.2738C89.9672 91.7188 91.9927 90.2281 94.313 89.6318C95.4985 89.3146 96.7632 89.2512 97.8378 88.6803C98.3604 88.3674 98.7725 87.8993 99.0168 87.341C99.2611 86.7828 99.3254 86.1622 99.2007 85.5657C98.4495 81.5853 100.548 77.5509 100.193 73.5133C100.098 72.3969 99.8125 71.309 99.6287 70.2021C99.2008 67.633 99.28 65.0005 99.4321 62.3934C100.156 61.2185 101.023 60.1391 102.015 59.1805C103.442 57.804 105.144 56.6431 106.136 54.9209C107.002 53.3953 107.211 51.5526 106.992 49.8082C106.837 48.5395 106.406 47.2042 105.407 46.4335C104.409 45.6628 102.976 45.6057 101.768 46.0085C101.6 46.0624 101.435 46.129 101.274 46.1988C100.769 45.946 100.218 45.7987 99.6546 45.766C99.0911 45.7333 98.5268 45.8158 97.9962 46.0085C96.7917 46.4081 95.7584 47.2042 94.7884 48.032C94.2136 48.4831 93.7093 49.0176 93.2923 49.6179C92.6805 50.5694 92.503 51.7429 92.2716 52.8625C91.7796 55.0238 91.0625 57.1276 90.1321 59.1393C89.9609 59.4945 89.4981 60.132 89.1241 60.7409L88.4458 60.6014C88.151 63.4274 85.7863 65.5016 84.3472 67.9438C83.6467 69.13 83.1554 70.4273 82.5246 71.6547C81.8049 72.9909 81.0013 74.2801 80.1188 75.5147C79.2629 76.7833 78.4061 78.0404 77.5481 79.2858C76.4729 80.9215 75.3089 82.497 74.0614 84.0053C72.8981 83.9101 71.7348 83.8245 70.5746 83.8054C68.6274 83.7775 66.6825 83.9508 64.7708 84.3224C64.6594 83.6498 64.5906 82.9707 64.5648 82.2894C64.5648 82.2481 64.5648 82.2069 64.5648 82.1657C64.5648 82.0007 64.5838 81.8041 64.606 81.5916C66.2534 80.4876 67.5943 78.9838 68.5032 77.2206C69.4121 75.4574 69.8595 73.4924 69.8034 71.5092C69.7474 69.5261 69.1898 67.5895 68.1827 65.8805C67.1757 64.1715 65.7521 62.7459 64.0449 61.7369C64.1079 61.3803 64.1481 61.0201 64.1654 60.6585C64.1654 60.446 64.1654 60.2303 64.1654 60.0241C64.1654 59.9163 64.1654 59.8085 64.1432 59.707C64.1236 59.4931 64.0875 59.281 64.0354 59.0726C64.0101 58.9711 63.9815 58.8697 63.9467 58.7555C63.8792 58.5565 63.791 58.3651 63.6836 58.1846C63.6769 58.1735 63.6695 58.1629 63.6614 58.1529C63.6202 58.0862 63.579 58.0196 63.5314 57.9562C63.4839 57.8928 63.4902 57.9055 63.4712 57.8801C63.4378 57.8337 63.4018 57.7892 63.3634 57.7469L63.2842 57.6644C63.2493 57.6263 63.2145 57.5883 63.1764 57.5534L63.0877 57.4741L62.9767 57.3758L62.8753 57.2997L62.7612 57.214L62.6502 57.1411L62.5361 57.0681C62.4981 57.0428 62.4569 57.0206 62.4157 56.9984L62.2984 56.9318L62.1716 56.8683L62.0543 56.8112L61.9148 56.751L61.8007 56.7002L61.6486 56.6431L61.5408 56.6019L61.376 56.5448L61.2777 56.5131L61.0971 56.456L61.0115 56.4306L60.8149 56.3767L60.7389 56.3545L60.5328 56.3038L60.4726 56.2879L60.2444 56.2372H60.2064L59.8703 56.1642C58.482 55.8788 57.0852 55.6324 55.6799 55.4252C54.5293 55.2539 53.3502 55.108 52.2154 55.3649C50.6495 55.7138 49.3436 56.7732 47.8791 57.4297C46.1485 58.2099 44.2276 58.4161 42.3828 58.8443C40.538 59.2725 38.6393 60.0051 37.4823 61.518C36.6011 62.6725 36.2493 64.141 35.9862 65.5714C33.7927 77.5096 36.1574 89.7555 36.6043 101.89C36.7786 106.613 36.5663 111.662 33.891 115.529L41.6823 115.322C42.0563 115.322 42.4335 115.3 42.8139 115.278C43.1942 115.256 43.5746 115.227 43.9486 115.183C44.9368 115.09 45.8967 114.802 46.7729 114.336C47.1787 114.105 47.5491 113.816 47.8728 113.48C48.9315 112.389 49.4957 110.863 50.0124 109.404C50.1867 108.912 50.3611 108.415 50.5164 107.913C50.5798 107.704 50.64 107.495 50.6939 107.279L50.7193 107.178L50.808 107.219C51.125 107.815 51.4832 108.399 51.8635 108.963C53.2234 110.968 54.9477 112.68 56.6594 114.384C60.0605 117.761 63.5378 121.2 67.8011 123.369C69.2402 124.095 70.7965 124.707 71.8933 125.906C72.4321 126.487 72.8981 127.232 73.662 127.432C74.1374 127.556 74.6605 127.432 75.1137 127.635C75.7794 127.914 76.0235 128.716 76.3309 129.376C76.6384 130.036 77.3326 130.708 77.9919 130.407C77.8683 131.019 77.9193 131.654 78.139 132.239C78.3587 132.824 78.7383 133.336 79.2344 133.715C79.5537 133.892 79.8289 134.14 80.0395 134.438C80.1411 134.71 80.1968 134.998 80.2044 135.288C80.3398 136.098 80.7672 136.831 81.4057 137.347C80.7876 138.371 81.2821 139.84 81.2979 141.118C81.2979 142.19 80.9461 143.224 80.7052 144.267C80.0047 147.328 80.3882 150.531 80.9588 153.617C81.2758 155.321 81.6783 157.084 82.7877 158.407C83.1491 158.835 83.5802 159.206 83.9605 159.621C84.6866 160.44 85.2899 161.36 85.7515 162.352C86.7135 164.317 87.3688 166.418 87.6945 168.581C87.8477 169.667 88.1573 170.725 88.6137 171.721C89.3079 173.237 88.674 175.102 89.2952 176.65C89.5774 177.345 90.0972 177.938 90.2652 178.664C90.5029 179.72 89.9482 180.776 89.7992 181.852C89.4379 184.37 91.2542 186.708 91.419 189.245C91.446 189.394 91.4142 189.547 91.3302 189.673C91.2066 189.813 90.9942 189.809 90.8262 189.889C90.5093 190.041 90.4237 190.469 90.3222 190.824C90.2208 191.18 89.9355 191.582 89.5837 191.475C84.3758 194.262 78.984 196.838 73.7761 199.626L71.3988 200.894L58.6849 207.691C58.5305 207.768 58.4008 207.887 58.3106 208.034C58.2203 208.181 58.1732 208.35 58.1745 208.522C58.1745 208.675 58.1935 208.84 58.2062 208.982C57.3155 209.204 56.4597 209.471 55.8511 209.582C55.6007 209.629 55.3503 209.677 55.103 209.731C55.1632 209.634 55.2021 209.526 55.2171 209.414C55.2182 209.257 55.1615 209.106 55.0579 208.989C54.9544 208.872 54.8113 208.797 54.6561 208.779C54.3455 208.749 54.0321 208.79 53.74 208.9C53.0133 209.099 52.271 209.235 51.5212 209.309C50.6305 209.395 49.724 209.391 48.8618 209.626C47.9996 209.861 47.1501 210.384 46.8014 211.212C46.627 211.691 46.5494 212.2 46.5732 212.709C46.5539 214.67 46.7861 216.624 47.2642 218.526C47.2718 218.601 47.2966 218.674 47.3367 218.738C47.3768 218.803 47.4312 218.857 47.4956 218.897C47.6066 218.941 47.7397 218.897 47.8506 218.948C47.9483 219.007 48.0214 219.099 48.0567 219.208C48.5892 220.419 48.7128 221.77 48.8554 223.09C49.0668 225.046 49.3341 226.996 49.6574 228.942C49.8476 230.077 50.0821 231.263 50.8207 232.139C51.6321 233.09 52.9159 233.512 54.1553 233.68C56.7703 234.032 59.4107 233.503 61.9909 232.96C62.4727 232.859 62.9894 232.735 63.3127 232.361C63.5491 232.062 63.6625 231.684 63.6297 231.305C63.5695 230.001 62.384 229.084 61.3063 228.352L59.8355 227.334C59.71 227.267 59.6106 227.16 59.5531 227.03C59.4956 226.9 59.4834 226.755 59.5185 226.617L59.6136 224.692H59.3283C59.6453 223.334 60.1556 222.031 61.1541 221.098C61.8419 220.464 62.739 220.02 63.4585 219.442C64.3817 220.153 65.5 220.563 66.6632 220.619C68.565 218.056 71.2435 216.312 73.9219 214.593C76.0974 213.218 78.3459 211.962 80.6576 210.831C82.5299 209.905 84.4318 209.037 86.3632 208.227C89.0892 207.079 91.8659 206.055 94.6458 205.056C96.5001 204.39 98.3703 203.733 100.079 202.75C104.516 200.184 107.651 195.062 107.052 189.933C106.298 183.463 107.911 176.72 107.803 170.205C107.772 168.302 107.702 166.399 107.125 164.576C107.259 164.671 107.386 164.777 107.502 164.893C108.656 165.971 108.935 167.684 110.038 168.914C110.897 169.882 112.203 170.5 112.723 171.68C113.119 172.584 113.062 173.805 113.889 174.325C114.124 174.474 114.403 174.538 114.637 174.684C114.918 174.884 115.154 175.14 115.332 175.435C116.21 176.688 117.119 178.03 117.214 179.559C117.256 180.164 117.199 180.865 117.642 181.274C117.769 181.392 117.931 181.477 117.997 181.636C118.137 181.953 117.769 182.289 117.706 182.641C117.614 183.13 118.096 183.501 118.394 183.91C118.642 184.251 118.776 184.663 118.776 185.085C118.776 185.508 118.642 185.919 118.394 186.26C115.794 189.638 115.325 194.19 113.053 197.802C112.267 199.049 111.392 200.228 110.631 201.491C108.292 205.367 107.109 209.82 105.962 214.206C106.452 215.06 107.116 215.801 107.911 216.382C107.482 217.859 106.741 219.227 105.74 220.394C105.484 220.679 105.245 220.979 105.024 221.292C104.838 221.056 104.594 220.873 104.317 220.759C103.9 222.58 103.687 224.441 103.683 226.309C103.683 227.54 103.851 228.945 104.849 229.655C105.248 229.907 105.686 230.088 106.146 230.191L108.32 230.826C108.703 230.972 109.118 231.013 109.521 230.943C109.778 230.87 110.006 230.711 110.27 230.661C110.555 230.631 110.844 230.669 111.113 230.772L112.992 231.32C113.628 231.49 114.249 231.709 114.85 231.977C115.386 232.234 115.88 232.567 116.406 232.852C117.281 233.295 118.19 233.668 119.123 233.969L122.362 235.085C123.265 235.443 124.208 235.688 125.171 235.815C125.836 235.872 126.511 235.815 127.168 235.929C127.668 236.015 128.153 236.195 128.657 236.246C129.494 236.271 130.316 236.026 131.003 235.548C131.271 235.397 131.503 235.188 131.681 234.936C132.157 234.194 131.748 233.214 131.285 232.465C130.426 231.076 129.352 229.776 127.935 228.977C127.361 228.659 126.74 228.425 126.147 228.133C124.461 227.308 123.189 225.932 121.595 224.99C121.392 224.845 121.145 224.775 120.896 224.792C120.647 224.808 120.411 224.911 120.229 225.082C118.904 224.222 117.471 223.382 116.742 221.983C116.417 221.308 116.203 220.585 116.108 219.842C116.853 220.02 117.604 220.159 118.362 220.283C119.595 215.5 120.942 210.632 123.354 206.318ZM92.9024 71.0489C92.839 71.4073 92.7693 71.7625 92.6932 72.1178C92.0593 75.096 91.1527 78.4326 89.0797 80.6496C88.3979 81.2995 87.6057 81.8225 86.7404 82.1942L86.509 82.3084C88.002 78.3184 90.3793 74.6202 92.9024 71.0489Z" fill="url(#paint0_linear)"/>
<path d="M95.9708 53.3827C96.2053 52.2757 96.3829 51.1149 96.9946 50.1602C97.4128 49.56 97.9181 49.0255 98.4939 48.5744C99.4638 47.7529 100.5 46.9632 101.708 46.5635C102.916 46.1639 104.336 46.2178 105.35 46.9854C106.364 47.7529 106.792 49.0755 106.951 50.3378C107.166 52.0727 106.951 53.8996 106.092 55.4125C105.109 57.1284 103.404 58.267 101.971 59.6436C100.933 60.6372 100.03 61.7633 99.2863 62.9929C98.9477 63.6337 98.5372 64.2338 98.0628 64.7817C97.8222 65.0542 97.5211 65.2665 97.1837 65.4015C96.8462 65.5364 96.4818 65.5903 96.1198 65.5587C95.508 65.4604 95.0103 65.0354 94.5349 64.6294C93.9485 64.1156 92.3699 63.199 92.316 62.3839C92.278 61.7242 93.511 60.2271 93.8122 59.6087C94.749 57.6153 95.4726 55.5283 95.9708 53.3827V53.3827Z" fill="#FBBEBE"/>
<path opacity="0.1" d="M95.9708 53.3827C96.2053 52.2757 96.3829 51.1149 96.9946 50.1602C97.4128 49.56 97.9181 49.0255 98.4939 48.5744C99.4638 47.7529 100.5 46.9632 101.708 46.5635C102.916 46.1639 104.336 46.2178 105.35 46.9854C106.364 47.7529 106.792 49.0755 106.951 50.3378C107.166 52.0727 106.951 53.8996 106.092 55.4125C105.109 57.1284 103.404 58.267 101.971 59.6436C100.933 60.6372 100.03 61.7633 99.2863 62.9929C98.9477 63.6337 98.5372 64.2338 98.0628 64.7817C97.8222 65.0542 97.5211 65.2665 97.1837 65.4015C96.8462 65.5364 96.4818 65.5903 96.1198 65.5587C95.508 65.4604 95.0103 65.0354 94.5349 64.6294C93.9485 64.1156 92.3699 63.199 92.316 62.3839C92.278 61.7242 93.511 60.2271 93.8122 59.6087C94.749 57.6153 95.4726 55.5283 95.9708 53.3827V53.3827Z" fill="black"/>
<path d="M62.6882 85.0836C65.2279 84.4079 67.8488 84.0877 70.4763 84.1321C74.8601 84.1956 79.3739 85.2581 83.5484 83.9133C84.6261 83.5393 85.674 83.0844 86.6833 82.5526C87.5233 82.134 88.3791 81.7026 89.0226 81.0175C91.0988 78.8164 91.9927 75.502 92.6425 72.5428C93.2923 69.5836 93.4603 66.5451 93.6283 63.5225C94.7091 64.0268 95.8471 64.5247 97.0453 64.4232C98.2434 64.3218 99.4384 63.4083 99.4321 62.2031C99.2546 65.0037 99.1151 67.8392 99.5874 70.6049C99.7713 71.7023 100.057 72.7838 100.155 73.8939C100.51 77.9029 98.4083 81.9088 99.1595 85.8639C99.2835 86.4572 99.2188 87.0745 98.9743 87.6291C98.7299 88.1837 98.318 88.6478 97.7965 88.9563C96.7188 89.5367 95.4509 89.6096 94.2654 89.9078C91.9419 90.5009 89.9133 91.9789 87.5804 92.5308C86.4931 92.7877 85.3615 92.8479 84.2901 93.1239C82.7496 93.5299 81.3518 94.4116 79.7827 94.6907C78.6068 94.9 77.3959 94.7573 76.2073 94.8588C75.1739 94.9444 74.1596 95.2172 73.1231 95.2426C70.5873 95.306 68.1878 93.8692 66.5015 91.963C64.8151 90.0568 63.7469 87.3926 62.6882 85.0836Z" fill="#FFC928"/>
<path opacity="0.1" d="M62.6882 85.0836C65.2279 84.4079 67.8488 84.0877 70.4763 84.1321C74.8601 84.1956 79.3739 85.2581 83.5484 83.9133C84.6261 83.5393 85.674 83.0844 86.6833 82.5526C87.5233 82.134 88.3791 81.7026 89.0226 81.0175C91.0988 78.8164 91.9927 75.502 92.6425 72.5428C93.2923 69.5836 93.4603 66.5451 93.6283 63.5225C94.7091 64.0268 95.8471 64.5247 97.0453 64.4232C98.2434 64.3218 99.4384 63.4083 99.4321 62.2031C99.2546 65.0037 99.1151 67.8392 99.5874 70.6049C99.7713 71.7023 100.057 72.7838 100.155 73.8939C100.51 77.9029 98.4083 81.9088 99.1595 85.8639C99.2835 86.4572 99.2188 87.0745 98.9743 87.6291C98.7299 88.1837 98.318 88.6478 97.7965 88.9563C96.7188 89.5367 95.4509 89.6096 94.2654 89.9078C91.9419 90.5009 89.9133 91.9789 87.5804 92.5308C86.4931 92.7877 85.3615 92.8479 84.2901 93.1239C82.7496 93.5299 81.3518 94.4116 79.7827 94.6907C78.6068 94.9 77.3959 94.7573 76.2073 94.8588C75.1739 94.9444 74.1596 95.2172 73.1231 95.2426C70.5873 95.306 68.1878 93.8692 66.5015 91.963C64.8151 90.0568 63.7469 87.3926 62.6882 85.0836Z" fill="black"/>
<path d="M176.682 88.9816C180.998 88.9816 185.217 90.2622 188.806 92.6614C192.394 95.0607 195.191 98.4709 196.842 102.461C198.494 106.451 198.926 110.841 198.084 115.076C197.241 119.312 195.163 123.202 192.111 126.255C189.059 129.309 185.17 131.388 180.937 132.23C176.704 133.072 172.317 132.639 168.33 130.986C164.343 129.333 160.935 126.534 158.538 122.943C156.14 119.352 154.861 115.131 154.862 110.812C154.863 105.022 157.162 99.4694 161.254 95.3754C165.346 91.2815 170.896 88.9816 176.682 88.9816ZM176.682 83.5897C171.301 83.5897 166.04 85.1865 161.565 88.1783C157.091 91.17 153.603 95.4223 151.544 100.397C149.485 105.372 148.946 110.847 149.996 116.128C151.046 121.409 153.638 126.261 157.444 130.068C161.249 133.876 166.098 136.468 171.376 137.518C176.654 138.569 182.125 138.029 187.097 135.968C192.069 133.907 196.318 130.417 199.308 125.939C202.297 121.461 203.892 116.197 203.892 110.812C203.883 103.594 201.014 96.6746 195.913 91.5712C190.812 86.4677 183.896 83.5972 176.682 83.5897Z" fill="#3F3D56"/>
<path d="M179.031 77.221H172.654V83.9387H179.031V77.221Z" fill="#3F3D56"/>
<path d="M195.873 83.2326L190.406 79.9459L186.949 85.7041L192.415 88.9908L195.873 83.2326Z" fill="#3F3D56"/>
<path d="M207.084 96.5277L203.992 90.9464L198.12 94.2032L201.212 99.7845L207.084 96.5277Z" fill="#3F3D56"/>
<path d="M203.908 130.495L207.288 125.084L201.595 121.524L198.215 126.936L203.908 130.495Z" fill="#3F3D56"/>
<path d="M152.154 99.782L155.246 94.2007L149.375 90.944L146.283 96.5253L152.154 99.782Z" fill="#3F3D56"/>
<path d="M155.153 126.933L151.773 121.521L146.08 125.081L149.459 130.493L155.153 126.933Z" fill="#3F3D56"/>
<path d="M160.948 88.9904L166.415 85.7037L162.957 79.9456L157.49 83.2323L160.948 88.9904Z" fill="#3F3D56"/>
<path d="M179.031 137.686H172.654V144.404H179.031V137.686Z" fill="#3F3D56"/>
<path d="M192.416 132.636L186.95 135.922L190.407 141.68L195.874 138.394L192.416 132.636Z" fill="#3F3D56"/>
<path d="M157.491 138.394L162.958 141.681L166.416 135.923L160.949 132.636L157.491 138.394Z" fill="#3F3D56"/>
<path d="M150.164 108.126H142.443V113.835H150.164V108.126Z" fill="#3F3D56"/>
<path d="M203.201 113.835H210.922V108.126H203.201V113.835Z" fill="#3F3D56"/>
<path d="M227.373 49.6812C231.689 49.6812 235.908 50.9619 239.497 53.3611C243.085 55.7604 245.882 59.1706 247.533 63.1604C249.185 67.1502 249.617 71.5404 248.774 75.7759C247.932 80.0113 245.854 83.9017 242.802 86.9551C239.75 90.0085 235.861 92.0878 231.628 92.9299C227.395 93.772 223.008 93.3391 219.021 91.6861C215.034 90.0331 211.626 87.2341 209.229 83.6431C206.831 80.0521 205.552 75.8304 205.553 71.512C205.554 65.7218 207.853 60.1691 211.945 56.0751C216.037 51.9812 221.587 49.6812 227.373 49.6812V49.6812ZM227.373 44.2894C221.992 44.2894 216.731 45.8862 212.256 48.878C207.782 51.8697 204.294 56.122 202.235 61.097C200.176 66.0721 199.637 71.5464 200.687 76.8278C201.737 82.1092 204.329 86.9603 208.135 90.7678C211.94 94.5752 216.789 97.168 222.067 98.2181C227.345 99.2683 232.816 98.7287 237.788 96.6675C242.76 94.6064 247.009 91.1163 249.999 86.6386C252.988 82.161 254.583 76.8968 254.583 71.512C254.574 64.2941 251.705 57.3743 246.604 52.2708C241.503 47.1673 234.587 44.2969 227.373 44.2894V44.2894Z" fill="#3F3D56"/>
<path d="M229.722 37.9239H223.344V44.6415H229.722V37.9239Z" fill="#3F3D56"/>
<path d="M246.566 43.9301L241.099 40.6434L237.642 46.4015L243.108 49.6882L246.566 43.9301Z" fill="#3F3D56"/>
<path d="M257.777 57.226L254.685 51.6447L248.813 54.9015L251.905 60.4828L257.777 57.226Z" fill="#3F3D56"/>
<path d="M254.598 91.1955L257.978 85.7838L252.285 82.224L248.905 87.6357L254.598 91.1955Z" fill="#3F3D56"/>
<path d="M202.843 60.4856L205.935 54.9043L200.063 51.6475L196.972 57.2288L202.843 60.4856Z" fill="#3F3D56"/>
<path d="M205.842 87.635L202.463 82.2233L196.769 85.7831L200.149 91.1948L205.842 87.635Z" fill="#3F3D56"/>
<path d="M211.639 49.6889L217.105 46.4022L213.648 40.644L208.181 43.9307L211.639 49.6889Z" fill="#3F3D56"/>
<path d="M229.722 98.3857H223.344V105.103H229.722V98.3857Z" fill="#3F3D56"/>
<path d="M243.107 93.3363L237.641 96.623L241.098 102.381L246.565 99.0945L243.107 93.3363Z" fill="#3F3D56"/>
<path d="M208.18 99.0927L213.646 102.379L217.104 96.6213L211.638 93.3346L208.18 99.0927Z" fill="#3F3D56"/>
<path d="M200.852 68.8255H193.13V74.5345H200.852V68.8255Z" fill="#3F3D56"/>
<path d="M253.895 74.5346H261.616V68.8256H253.895V74.5346Z" fill="#3F3D56"/>
<path d="M125.979 48.0003C126.236 48.0003 126.492 48.0003 126.749 48.0003C132.468 48.1955 137.882 50.631 141.824 54.782C145.766 58.933 147.92 64.4674 147.823 70.1926C147.726 75.9179 145.384 81.3757 141.304 85.3903C137.223 89.4049 131.73 91.6548 126.007 91.6553C125.751 91.6553 125.494 91.6553 125.234 91.6553C119.514 91.4602 114.1 89.0245 110.159 84.8731C106.217 80.7217 104.063 75.187 104.16 69.4615C104.258 63.7359 106.6 58.278 110.681 54.2637C114.762 50.2494 120.256 48 125.979 48.0003V48.0003ZM125.979 42.6085C118.843 42.6076 111.992 45.412 106.902 50.4173C101.813 55.4227 98.8926 62.2284 98.7704 69.3679C98.6481 76.5074 101.334 83.4091 106.249 88.586C111.164 93.7628 117.915 96.8004 125.047 97.044C125.364 97.044 125.681 97.0599 125.998 97.0599C133.134 97.0599 139.984 94.255 145.073 89.2493C150.162 84.2437 153.082 77.4381 153.203 70.2989C153.325 63.1597 150.639 56.2583 145.724 51.0818C140.809 45.9053 134.058 42.868 126.927 42.6243C126.61 42.6243 126.293 42.6085 125.976 42.6085H125.979Z" fill="#3F3D56"/>
<path d="M129.501 36.3499L123.127 36.1283L122.894 42.8419L129.268 43.0635L129.501 36.3499Z" fill="#3F3D56"/>
<path d="M146.122 42.9382L140.773 39.4635L137.117 45.0981L142.467 48.5727L146.122 42.9382Z" fill="#3F3D56"/>
<path d="M156.867 56.6143L153.97 50.9289L147.989 53.9797L150.885 59.6651L156.867 56.6143Z" fill="#3F3D56"/>
<path d="M152.518 90.4425L156.084 85.1515L150.517 81.396L146.952 86.6871L152.518 90.4425Z" fill="#3F3D56"/>
<path d="M101.856 57.956L105.14 52.4855L99.3849 49.0267L96.1012 54.4972L101.856 57.956Z" fill="#3F3D56"/>
<path d="M103.466 85.721L100.277 80.1692L94.4361 83.528L97.6249 89.0798L103.466 85.721Z" fill="#3F3D56"/>
<path d="M111.027 47.4714L116.604 44.3767L113.348 38.5019L107.771 41.5966L111.027 47.4714Z" fill="#3F3D56"/>
<path d="M127.405 96.7722L121.032 96.5506L120.799 103.264L127.172 103.486L127.405 96.7722Z" fill="#3F3D56"/>
<path d="M140.961 92.195L135.384 95.2897L138.639 101.165L144.217 98.0698L140.961 92.195Z" fill="#3F3D56"/>
<path d="M105.861 96.7294L111.21 100.204L114.866 94.5695L109.517 91.0949L105.861 96.7294Z" fill="#3F3D56"/>
<path d="M99.5811 66.2295L91.8643 65.9612L91.6661 71.6668L99.383 71.9351L99.5811 66.2295Z" fill="#3F3D56"/>
<path d="M152.395 73.7692L160.112 74.0375L160.31 68.3319L152.593 68.0637L152.395 73.7692Z" fill="#3F3D56"/>
<path d="M55.7148 209.049C54.9295 209.145 54.168 209.382 53.4674 209.75C52.5165 210.33 51.93 211.355 51.5116 212.389C50.4624 214.983 50.2437 217.831 50.1994 220.635C50.1613 222.893 50.2374 225.205 51.0457 227.311C51.2674 227.978 51.652 228.579 52.1646 229.059C52.6155 229.414 53.1378 229.667 53.6956 229.801C54.9001 230.118 56.298 230.118 57.2838 229.357C58.3805 228.498 58.6563 226.985 58.8877 225.611C59.2047 223.759 59.6453 221.805 61.0209 220.514C62.0416 219.563 63.5029 219.087 64.2446 217.907C65.129 216.505 64.663 214.675 64.0988 213.115C63.6075 211.764 62.8879 209.02 61.4742 208.329C60.0605 207.637 57.1855 208.782 55.7148 209.049Z" fill="#FBBEBE"/>
<path d="M107.848 215.694C107.421 217.206 106.663 218.605 105.629 219.788C104.995 220.511 104.219 221.39 104.551 222.288C104.687 222.591 104.888 222.861 105.141 223.077C109.788 227.629 116.289 229.843 122.74 230.648C122.843 230.676 122.953 230.676 123.057 230.648C123.247 230.562 123.291 230.331 123.316 230.118C123.419 229.446 123.419 228.761 123.316 228.089C122.999 226.503 121.621 225.402 120.27 224.533C118.92 223.664 117.443 222.82 116.688 221.403C115.738 219.639 116.146 217.343 115.028 215.694C114.121 214.352 112.438 213.791 110.84 213.527C110.286 213.442 109.106 212.833 108.621 213.115C108.127 213.401 108.016 215.142 107.848 215.694Z" fill="#FBBEBE"/>
<path d="M55.081 208.884C55.082 208.728 55.0253 208.576 54.9218 208.459C54.8182 208.342 54.6751 208.267 54.5199 208.25C54.2096 208.218 53.8961 208.258 53.6039 208.367C52.877 208.564 52.1347 208.7 51.385 208.773C50.4943 208.858 49.5846 208.855 48.7192 209.09C47.8539 209.325 47.0076 209.842 46.6557 210.676C46.4846 211.152 46.4071 211.657 46.4275 212.163C46.4096 214.11 46.6418 216.051 47.1185 217.939C47.1269 218.015 47.1524 218.087 47.193 218.152C47.2337 218.216 47.2884 218.27 47.3531 218.31C47.464 218.354 47.5972 218.31 47.7081 218.361C47.8055 218.419 47.8787 218.51 47.9141 218.618C48.4498 219.823 48.5734 221.155 48.7161 222.474C48.9274 224.418 49.1947 226.354 49.518 228.285C49.7082 229.411 49.9428 230.594 50.6845 231.457C51.496 232.408 52.7829 232.817 54.0223 232.985C56.6405 233.334 59.2841 232.808 61.8706 232.269C62.3638 232.219 62.8276 232.011 63.1924 231.675C63.4287 231.379 63.5422 231.003 63.5094 230.626C63.4491 229.332 62.2605 228.405 61.1828 227.695L59.6993 226.696C59.5958 226.639 59.5069 226.558 59.4394 226.461C59.3691 226.313 59.3437 226.148 59.3665 225.985L59.4616 224.082C58.4762 224.098 57.5135 224.381 56.6762 224.901C55.8389 225.421 55.1583 226.159 54.7069 227.035C54.5009 227.444 54.3075 227.923 53.8796 228.082C53.3503 228.282 52.7607 227.835 52.5832 227.299C52.4597 226.745 52.4761 226.17 52.6307 225.624C53.4993 220.968 53.2964 216.182 53.8257 211.475C53.8585 210.947 54.0207 210.435 54.298 209.984C54.5548 209.629 55.0334 209.318 55.081 208.884Z" fill="#3F3D56"/>
<path d="M119.82 226.937C120.039 227.299 120.378 227.571 120.581 227.946C120.784 228.32 120.78 228.865 120.416 229.078C120.201 229.173 119.961 229.197 119.731 229.148C115.077 228.57 110.708 226.592 107.201 223.477C106.619 222.984 106.103 222.418 105.667 221.792C105.258 221.158 104.913 220.413 104.215 220.153C103.798 221.961 103.586 223.81 103.581 225.665C103.581 226.886 103.749 228.282 104.748 228.989C105.148 229.238 105.587 229.417 106.047 229.519L108.225 230.134C108.609 230.279 109.025 230.32 109.43 230.251C109.686 230.182 109.914 230.02 110.178 229.972C110.464 229.942 110.754 229.979 111.024 230.08L112.904 230.629C113.54 230.791 114.162 231.003 114.764 231.263C115.3 231.517 115.798 231.85 116.321 232.132C117.198 232.572 118.108 232.942 119.043 233.239L122.353 234.387C123.257 234.745 124.203 234.988 125.167 235.11C125.833 235.167 126.508 235.11 127.168 235.225C127.668 235.31 128.153 235.491 128.66 235.542C129.496 235.565 130.317 235.321 131.006 234.847C131.274 234.697 131.507 234.49 131.688 234.241C132.163 233.502 131.754 232.529 131.288 231.783C130.429 230.407 129.355 229.116 127.935 228.329C127.358 228.012 126.736 227.777 126.144 227.489C124.457 226.671 123.18 225.304 121.586 224.368C120.08 223.493 119.11 225.773 119.82 226.937Z" fill="#3F3D56"/>
<path d="M73.3419 93.6281C71.5938 94.8299 69.5908 95.6094 67.4905 95.9054C66.3919 96.0423 65.2851 96.1016 64.1781 96.083C59.5624 96.0775 54.955 95.6924 50.4023 94.9317C52.2154 92.9335 54.0476 90.8085 54.7322 88.1887C55.0715 86.8068 55.1415 85.3724 54.9383 83.964C54.6637 82.1571 54.2331 80.3775 53.6513 78.6451C55.5932 78.7493 57.5402 78.6994 59.4742 78.496C60.5773 78.385 63.2779 77.3796 64.2288 78.1408C65.1195 78.8481 64.4476 81.3505 64.4317 82.505C64.4317 82.5462 64.4317 82.5875 64.4317 82.6287C64.4816 84.3812 64.8589 86.1089 65.5443 87.7224C66.939 90.8434 69.9217 93.4061 73.3419 93.6281Z" fill="#FBBEBE"/>
<path opacity="0.1" d="M64.4444 82.4892C63.0552 83.3973 61.4878 83.9974 59.8476 84.249C58.2074 84.5007 56.5324 84.3981 54.9351 83.9482C54.6606 82.1413 54.23 80.3617 53.6482 78.6293C55.59 78.7334 57.5371 78.6836 59.471 78.4802C60.5741 78.3692 63.2747 77.3637 64.2257 78.125C65.1322 78.8322 64.4602 81.3347 64.4444 82.4892Z" fill="black"/>
<path d="M58.0921 83.8403C64.4993 83.8403 69.6934 78.643 69.6934 72.2319C69.6934 65.8208 64.4993 60.6235 58.0921 60.6235C51.6848 60.6235 46.4907 65.8208 46.4907 72.2319C46.4907 78.643 51.6848 83.8403 58.0921 83.8403Z" fill="#FBBEBE"/>
<path d="M107.315 130.971C107.322 131.909 107.084 132.831 106.625 133.648C106.167 134.465 105.503 135.148 104.7 135.631C103.803 136.102 102.842 136.438 101.848 136.63C96.5414 137.898 91.1052 138.942 85.6564 138.631C84.4772 138.564 83.2791 138.425 82.2204 137.908C81.1617 137.391 80.2583 136.424 80.0998 135.256C80.0927 134.968 80.0359 134.682 79.9318 134.413C79.7218 134.115 79.4464 133.87 79.1267 133.696C78.6366 133.319 78.262 132.812 78.0457 132.233C77.8294 131.654 77.78 131.026 77.9032 130.42C77.2407 130.715 76.5497 130.049 76.239 129.392C75.9284 128.735 75.6843 127.943 75.0187 127.667C74.5654 127.473 74.0424 127.587 73.5638 127.464C72.7998 127.267 72.3339 126.512 71.795 125.948C70.6951 124.771 69.1356 124.162 67.6965 123.439C63.4268 121.285 59.9465 117.872 56.539 114.517C54.8241 112.826 53.0966 111.123 51.7368 109.125C51.3532 108.564 51.0077 107.986 50.6812 107.393C49.6503 105.415 48.7565 103.369 48.006 101.269C47.5749 100.146 47.1374 98.9597 47.315 97.7798C47.3308 97.672 47.353 97.5641 47.3783 97.4626C47.5992 96.696 47.9557 95.9752 48.4307 95.3344C49.6099 93.5995 51.1567 91.9566 53.1853 91.4237C55.214 90.8909 57.2395 91.5348 59.2998 91.9724C59.984 92.1248 60.6776 92.2307 61.376 92.2896C63.56 92.445 65.7218 91.8583 67.8328 91.2747L70.1341 90.6403C71.2879 90.3232 71.8648 88.9276 73.0312 88.6834C73.5524 88.6084 74.0831 88.6353 74.5939 88.7627C76.9617 89.2131 79.3486 89.7935 81.4311 90.9987C81.8947 91.268 82.3386 91.5701 82.7592 91.9027C84.2427 93.0762 85.4155 94.6398 85.8466 96.4667C86.322 98.4744 85.8751 100.618 86.3569 102.626C86.75 104.285 87.7453 105.731 88.7216 107.13L94.3859 115.224C95.6502 117.129 97.0429 118.945 98.5542 120.66C101.591 123.968 107.239 126.471 107.315 130.971Z" fill="#FFC928"/>
<path d="M92.1893 53.3827C92.4238 52.2757 92.5982 51.1149 93.2099 50.1602C93.6282 49.56 94.1335 49.0255 94.7092 48.5744C95.6824 47.7529 96.7157 46.9632 97.9234 46.5635C99.1311 46.1639 100.551 46.2178 101.565 46.9854C102.58 47.7529 103.008 49.0755 103.166 50.3378C103.382 52.0727 103.166 53.8996 102.307 55.4125C101.325 57.1284 99.6192 58.267 98.1865 59.6436C97.1495 60.6382 96.2469 61.7641 95.5017 62.9929C95.1631 63.6337 94.7526 64.2338 94.2782 64.7817C94.0376 65.0542 93.7365 65.2665 93.399 65.4015C93.0615 65.5364 92.6971 65.5903 92.3351 65.5587C91.7265 65.4604 91.2257 65.0354 90.7502 64.6294C90.1638 64.1156 88.5821 63.199 88.5314 62.3839C88.4933 61.7242 89.7264 60.2271 90.0275 59.6087C90.964 57.6148 91.6885 55.528 92.1893 53.3827V53.3827Z" fill="#FBBEBE"/>
<path d="M132.962 187.849C131.504 190.542 129.906 193.165 128.607 195.937C127.849 197.558 127.193 199.226 126.35 200.802C125.431 202.521 124.299 204.12 123.338 205.82C120.92 210.105 119.573 214.939 118.327 219.699C114.843 219.177 111.49 217.993 108.45 216.21C108.244 216.09 108.048 215.963 107.857 215.827C107.045 215.244 106.365 214.495 105.864 213.629C107.014 209.274 108.197 204.846 110.539 200.999C111.303 199.73 112.178 198.573 112.964 197.336C115.243 193.752 115.712 189.229 118.314 185.873C118.563 185.535 118.697 185.126 118.697 184.706C118.697 184.286 118.563 183.877 118.314 183.539C118.013 183.149 117.535 182.778 117.623 182.296C117.69 181.944 118.058 181.626 117.915 181.297C117.848 181.138 117.687 181.052 117.56 180.938C117.116 180.529 117.173 179.831 117.135 179.232C117.037 177.713 116.127 176.377 115.233 175.137C115.055 174.843 114.819 174.588 114.539 174.389C114.305 174.246 114.026 174.182 113.791 174.037C112.961 173.516 113.021 172.305 112.622 171.407C112.102 170.224 110.793 169.622 109.934 168.661C108.84 167.439 108.561 165.736 107.398 164.667C107.28 164.552 107.154 164.446 107.021 164.35C107.597 166.142 107.655 168.055 107.696 169.942C107.807 176.409 106.19 183.104 106.948 189.53C107.544 194.627 104.412 199.715 99.9584 202.261C98.2467 203.238 96.3765 203.892 94.5191 204.554C91.7328 205.541 88.9561 206.559 86.2238 207.701C84.2924 208.5 82.3905 209.362 80.5182 210.286C78.2037 211.41 75.951 212.657 73.7698 214.022C71.0882 215.728 68.4066 217.463 66.5016 220.01C64.6599 219.959 62.9736 218.852 61.8071 217.425C60.6407 215.998 59.9053 214.254 59.2365 212.553C58.6437 211.079 58.0605 209.556 58.0161 207.967C58.0241 207.796 58.08 207.631 58.1776 207.491C58.2752 207.351 58.4104 207.241 58.5676 207.174L71.3006 200.422L73.6811 199.153C78.8953 196.384 84.2966 193.825 89.5108 191.059C89.8627 191.164 90.1448 190.764 90.2494 190.425C90.354 190.085 90.4269 189.648 90.7565 189.495C90.9214 189.416 91.1369 189.419 91.2605 189.28C91.3411 189.155 91.3727 189.005 91.3493 188.858C91.1813 186.32 89.3618 184.015 89.7264 181.512C89.8817 180.447 90.4301 179.397 90.1923 178.341C90.0243 177.614 89.5045 177.027 89.2224 176.339C88.5884 174.801 89.2224 172.949 88.5377 171.442C88.0827 170.452 87.7731 169.4 87.6185 168.321C87.2906 166.172 86.6342 164.086 85.6723 162.136C85.2093 161.151 84.6061 160.237 83.8813 159.425C83.4978 159.012 83.0667 158.644 82.7022 158.216C81.5959 156.903 81.187 155.152 80.8732 153.459C80.3027 150.392 79.9223 147.21 80.6197 144.172C80.8606 143.135 81.2283 142.107 81.2124 141.045C81.1966 139.64 80.5784 138 81.5547 136.985C81.9591 136.622 82.4505 136.369 82.9811 136.252C85.2253 135.583 87.5614 135.279 89.8849 134.984L100.519 133.591C101.737 133.429 102.982 133.274 104.057 132.668C105.499 131.872 106.456 130.397 107.043 128.862C108.91 130.226 109.607 132.767 111.097 134.527C111.823 135.386 112.72 136.081 113.515 136.871C114.488 137.896 115.38 138.996 116.181 140.16C118.4 143.208 120.619 146.278 122.204 149.697C123.031 151.473 123.671 153.325 124.331 155.168C126.927 162.422 131.158 169.308 132.914 176.805C133.345 178.639 134.464 180.294 134.639 182.169C134.835 184.157 133.916 186.079 132.962 187.849Z" fill="#3F3D56"/>
<path opacity="0.1" d="M77.2693 127.606C77.0088 128.089 76.8736 128.628 76.8763 129.176C77.114 128.003 78.7274 127.353 78.832 126.192C78.8795 125.656 78.7813 125.681 78.4516 125.964C77.9508 126.398 77.7321 127.147 77.2693 127.606Z" fill="black"/>
<path opacity="0.1" d="M82.1855 131.171C81.8449 131.459 81.5903 131.836 81.4501 132.259C81.1758 132.856 81.123 133.53 81.3011 134.162C81.5389 134.051 81.6181 133.759 81.691 133.506C81.8078 133.11 81.9773 132.733 82.195 132.383C82.3852 132.066 83.2633 131.358 83.2601 131.025C83.2506 130.515 82.4201 130.991 82.1855 131.171Z" fill="black"/>
<path opacity="0.1" d="M82.7531 91.8806C82.0075 92.5226 81.1856 93.0702 80.3061 93.5109C78.008 94.6749 75.4627 95.2902 73.1487 96.4193C72.0072 97.0046 70.8983 97.6515 69.8268 98.3572L62.9485 102.718C62.3959 103.035 61.8866 103.422 61.4333 103.87C60.606 104.751 60.6092 106.302 59.8484 107.247C59.0877 108.193 57.7754 108.725 56.5107 108.789C55.2438 108.796 53.9854 108.582 52.7925 108.155C52.0701 107.938 51.361 107.68 50.6688 107.381C49.9449 107.073 49.2597 106.681 48.6275 106.213C47.4008 105.287 46.4086 103.939 46.2248 102.407C46.1422 101.356 46.2815 100.299 46.6337 99.3055C46.8241 98.659 47.0691 98.0298 47.3659 97.4247C47.535 97.0805 47.73 96.7497 47.9491 96.4351C49.534 94.1959 52.3139 93.1461 55.005 92.6291C56.4188 92.3532 57.8578 92.1851 59.2874 91.944C59.9715 92.0964 60.6652 92.2023 61.3636 92.2612C63.5475 92.4166 65.7093 91.8299 67.8204 91.2463L70.1216 90.6119C71.2754 90.2948 71.8523 88.8992 73.0188 88.655C73.5399 88.58 74.0706 88.6069 74.5815 88.7343C76.9493 89.1847 79.3361 89.7651 81.4186 90.9703C81.8847 91.2414 82.3306 91.5456 82.7531 91.8806Z" fill="black"/>
<path d="M88.3634 61.0707C88.0687 63.8776 85.7008 65.9392 84.2428 68.3656C83.5422 69.5423 83.0509 70.8331 82.4201 72.0511C81.6973 73.379 80.8927 74.6607 80.0111 75.8888L77.4341 79.6314C75.919 81.8325 74.388 84.0527 72.4512 85.8955C69.0755 86.4695 66.2449 88.9783 63.0434 90.1963C60.4822 91.17 57.6897 91.3032 55.0017 91.8265C52.3138 92.3498 49.5276 93.4124 47.949 95.6325C47.3612 96.5082 46.9161 97.4717 46.6304 98.487C46.2761 99.4793 46.1378 100.536 46.2247 101.586C46.418 103.115 47.3975 104.459 48.6242 105.392C49.8509 106.324 51.3185 106.876 52.7892 107.333C53.9825 107.759 55.2406 107.973 56.5074 107.967C57.7753 107.904 59.0622 107.415 59.8483 106.426C60.6344 105.436 60.5964 103.93 61.4332 103.048C61.8876 102.6 62.3979 102.213 62.9515 101.897L69.8299 97.5355C70.9006 96.8343 72.0084 96.1916 73.1486 95.6103C75.4625 94.478 78.0078 93.8659 80.3059 92.7019C82.604 91.5379 84.7436 89.6159 85.2032 87.0785C86.6042 79.2825 91.996 72.7108 96.6143 66.2723C96.4622 66.2405 96.5097 65.8948 96.4527 65.7489C95.8631 64.2202 94.5508 63.0689 93.0737 62.3425C91.5966 61.6162 89.9483 61.4133 88.3634 61.0707Z" fill="#FFC928"/>
<path d="M64.0451 61.1278C64.1309 60.2822 63.9643 59.4302 63.5665 58.6792C62.8026 57.4106 61.2018 56.9634 59.7628 56.6652C58.3702 56.3798 56.9713 56.1345 55.566 55.9294C54.4122 55.7613 53.2299 55.6122 52.0951 55.8723C50.5102 56.218 49.2201 57.2679 47.7525 57.9212C46.0187 58.6951 44.0978 58.8981 42.2467 59.3263C40.3955 59.7544 38.5 60.4808 37.3399 61.9841C36.4587 63.1259 36.1068 64.5849 35.8437 66.0058C33.6471 77.8648 36.0117 90.0282 36.4618 102.081C36.6362 106.771 36.4238 111.786 33.7454 115.64L41.5461 115.433C43.5431 115.383 45.689 115.278 47.2517 114.044C48.6337 112.959 49.2867 111.212 49.8794 109.556C50.3454 108.253 50.8145 106.924 50.8747 105.541C50.9984 102.709 49.3913 99.927 49.9238 97.1391C50.3137 95.0585 51.8257 93.3775 53.4454 92.0105C55.0652 90.6435 56.8656 89.4731 58.1747 87.7985C60.514 84.8393 60.9609 80.7954 60.6693 77.037C60.495 74.8009 60.0956 72.5649 60.2889 70.3288C60.4347 68.6574 60.9641 66.932 62.0577 65.6284C63.2875 64.1504 63.9373 63.2243 64.0451 61.1278Z" fill="#3F3D56"/>
<path opacity="0.1" d="M63.5662 58.6794C62.815 57.4297 61.2554 56.9794 59.8259 56.6812C60.5858 56.9518 61.2361 57.4643 61.677 58.1402C62.0763 58.8906 62.243 59.7431 62.1557 60.5887C62.0479 62.682 61.3981 63.6082 60.1555 65.0893C59.062 66.3929 58.5326 68.1151 58.3868 69.7898C58.1935 72.0258 58.5928 74.2618 58.7672 76.4979C59.0588 80.2563 58.6119 84.3002 56.2757 87.2594C54.9635 88.9214 53.163 90.1139 51.5465 91.4714C49.9299 92.8289 48.4116 94.5194 48.0217 96.6C47.4987 99.3879 49.1058 102.169 48.9726 105.002C48.9124 106.385 48.4401 107.714 47.9742 109.017C47.3846 110.673 46.7284 112.417 45.3464 113.502C43.7615 114.736 41.6283 114.844 39.6408 114.894L34.116 115.04C33.9923 115.243 33.8655 115.446 33.7292 115.64L41.53 115.433C43.527 115.383 45.6729 115.278 47.2356 114.044C48.6176 112.96 49.2706 111.212 49.8633 109.556C50.3293 108.253 50.7984 106.924 50.8586 105.541C50.9823 102.709 49.3752 99.9271 49.9077 97.1392C50.2976 95.0586 51.8096 93.3776 53.4293 92.0106C55.0491 90.6436 56.8495 89.4732 58.1586 87.7986C60.4979 84.8394 60.9448 80.7955 60.6532 77.0371C60.4788 74.801 60.0795 72.565 60.2728 70.329C60.4186 68.6575 60.948 66.9321 62.0415 65.6285C63.2841 64.1505 63.9434 63.2244 64.0417 61.1279C64.1284 60.2827 63.9629 59.4306 63.5662 58.6794V58.6794Z" fill="black"/>
<path opacity="0.1" d="M122.175 180.907L107.858 215.843C107.045 215.26 106.365 214.511 105.864 213.645C107.014 209.29 108.197 204.862 110.539 201.015C111.303 199.746 112.178 198.589 112.964 197.352C115.243 193.768 115.712 189.245 118.315 185.889C118.563 185.551 118.697 185.142 118.697 184.722C118.697 184.302 118.563 183.893 118.315 183.555C118.013 183.165 117.535 182.794 117.624 182.312C117.69 181.96 118.058 181.642 117.915 181.313C117.849 181.154 117.687 181.068 117.56 180.954C117.116 180.545 117.173 179.847 117.135 179.248C117.037 177.729 116.127 176.393 115.234 175.153C115.055 174.859 114.819 174.605 114.539 174.405C114.305 174.262 114.026 174.199 113.791 174.053C112.961 173.532 113.021 172.321 112.622 171.423C112.102 170.24 110.793 169.638 109.934 168.677C108.84 167.455 108.561 165.752 107.398 164.683L107.3 164.436L108.415 157.696L122.175 180.907Z" fill="black"/>
</g>
<defs>
<linearGradient id="paint0_linear" x1="84.2743" y1="236.259" x2="84.2743" y2="45.7357" gradientUnits="userSpaceOnUse">
<stop stop-color="#808080" stop-opacity="0.25"/>
<stop offset="0.54" stop-color="#808080" stop-opacity="0.12"/>
<stop offset="1" stop-color="#808080" stop-opacity="0.1"/>
</linearGradient>
<clipPath id="clip0">
<rect width="320" height="238" fill="white"/>
</clipPath>
</defs>
</svg>
