<svg xmlns="http://www.w3.org/2000/svg" viewBox="0 0 32 32"><defs><style>.cls-1{fill:#c1272d;}.cls-2{fill:#fff;}</style></defs><title>Surat</title><g id="Layer_2" data-name="Layer 2"><g id="Layer_1-2" data-name="Layer 1"><rect class="cls-1" width="32" height="32" rx="10"/><path class="cls-2" d="M11.94,8.47a2.19,2.19,0,0,0-2,2.18v.42l2-.08Z"/><path class="cls-2" d="M19.9,8.45H13.1v3.1a.58.58,0,0,1-.56.58l-2.61.1h0v9.12a2.2,2.2,0,0,0,2.19,2.2h7.8a2.2,2.2,0,0,0,2.19-2.2V10.65A2.2,2.2,0,0,0,19.9,8.45Zm.16,12.19H11.94a.58.58,0,0,1,0-1.16h8.12a.58.58,0,0,1,0,1.16Zm0-2.32H11.94a.58.58,0,0,1,0-1.16h8.12a.58.58,0,0,1,0,1.16Zm0-2.32H11.94a.58.58,0,0,1,0-1.16h8.12a.58.58,0,1,1,0,1.16Zm0-3.48H16.58a.58.58,0,0,1,0-1.16h3.48a.58.58,0,0,1,0,1.16Z"/></g></g></svg>