<svg width="285" height="320" viewBox="0 0 285 320" fill="none" xmlns="http://www.w3.org/2000/svg">
<g clip-path="url(#clip0)">
<path d="M284.58 0H0V320H284.58V0Z" fill="#FFCA2A"/>
<path d="M284.58 0L211.67 25V297.08L284.58 320V0Z" fill="white"/>
<path d="M242.89 30.49L223.54 37.13L223.75 160.42L242.92 160L242.89 30.49Z" fill="#E5E5E4"/>
<path d="M273.01 20.53L253.66 27.16L253.75 160H272.92L273.01 20.53Z" fill="#E5E5E4"/>
<path d="M272.92 170.83H253.33V295.29L272.92 301.06V170.83Z" fill="#E5E5E4"/>
<path d="M242.92 170.83L223.33 170.42V286.54L242.92 292.31V170.83Z" fill="#E5E5E4"/>
<path d="M248.2 205C257.246 205 264.58 188.117 264.58 167.29C264.58 146.463 257.246 129.58 248.2 129.58C239.154 129.58 231.82 146.463 231.82 167.29C231.82 188.117 239.154 205 248.2 205Z" fill="white"/>
<path d="M248.2 174.79C253.723 174.79 258.2 167.609 258.2 158.75C258.2 149.891 253.723 142.71 248.2 142.71C242.677 142.71 238.2 149.891 238.2 158.75C238.2 167.609 242.677 174.79 248.2 174.79Z" fill="#151E32"/>
<path d="M242.78 152.29H253.62V186.46C253.62 187.897 253.049 189.276 252.033 190.293C251.016 191.309 249.637 191.88 248.2 191.88C246.763 191.88 245.384 191.309 244.367 190.293C243.351 189.276 242.78 187.897 242.78 186.46V152.29Z" fill="#151E32"/>
<path d="M111.25 235.93C111.25 235.53 111.21 235.132 111.13 234.74C111.55 231.17 110.96 227.74 107.68 225.53C102.55 222.08 94.11 222.74 88.3 222.27C73.64 221.09 58.98 219.52 44.44 222.27C44.3 222.27 44.17 222.27 44.02 222.27C34.02 222.08 34.66 235.58 36.02 245.41C36.02 246.96 36.14 248.48 36.27 249.91C36.99 257.79 38.27 269.28 43.2 276.43C44.36 279.34 46.33 281.52 50.06 281.37C50.4999 281.35 50.9361 281.279 51.36 281.16C59.1526 282.216 67.0276 282.534 74.88 282.11C82.49 281.77 91.73 282.46 99.04 280.11C106.35 277.76 107.21 270.25 108.43 263.44C110.184 254.581 111.127 245.58 111.25 236.55C111.28 236.32 111.25 236.13 111.25 235.93Z" fill="#CFAA4B"/>
<path d="M86.73 222.71C86.83 222.235 86.7422 221.739 86.4849 221.327C86.2277 220.915 85.821 220.619 85.35 220.5C76.4403 218.236 67.1152 218.16 58.17 220.28C57.8213 220.352 57.5027 220.529 57.2563 220.786C57.0099 221.043 56.8473 221.369 56.79 221.72C56.5508 222.194 56.5007 222.741 56.65 223.25C58.56 230.17 58.74 237.34 59.31 244.47C59.5512 248.007 60.0256 251.525 60.73 255C61.27 257.5 62.44 260.26 65.1 260.69C67.27 261.06 68.85 259.56 70.2 258C71.04 257.06 71.73 255.91 73.07 256.49C74.41 257.07 75.43 258.67 76.56 259.62C78.26 261.06 81.66 262.62 83.04 259.83C83.66 258.58 83.57 256.72 83.71 255.35C83.9033 253.437 84.1 251.533 84.3 249.64L86.93 223.91C86.9989 223.499 86.9286 223.077 86.73 222.71Z" fill="#EDCF86"/>
<path d="M79.78 258.2C78.47 258.33 77.53 258.46 76.7 257.25C76.2169 256.422 75.5279 255.733 74.7 255.25C73.8155 254.875 72.8502 254.732 71.895 254.834C70.9398 254.935 70.0261 255.278 69.24 255.83C67.24 257.11 66.16 259.35 64.6 261.12C63.77 262.12 61.12 263.94 60.24 261.98C59.8 260.98 60.24 259.07 60.3 257.98C60.39 256.51 60.44 255.04 60.48 253.57C60.55 250.41 60.48 247.25 60.34 244.09C60.04 238.049 59.3317 232.035 58.22 226.09C57.84 224.01 54.89 224.9 55.22 226.96C56.4583 233.644 57.1705 240.415 57.35 247.21C57.43 250.37 57.35 253.52 57.25 256.68C57.13 259.18 56.35 262.51 58.25 264.57C58.9747 265.26 59.8857 265.722 60.8702 265.9C61.8548 266.077 62.8699 265.963 63.79 265.57C65.9 264.78 67.19 262.9 68.51 261.09C69.66 259.52 72.26 256.43 74.04 258.85C74.5774 259.832 75.4004 260.627 76.4 261.13C77.4864 261.5 78.6465 261.599 79.78 261.42C81.74 261.28 81.76 258 79.78 258.2Z" fill="#010101"/>
<path d="M110.91 233.33C110.61 230.33 109.91 227.16 107.57 225.16C105.49 223.37 102.57 222.77 100.27 224.33C98.6 225.45 100.14 228.28 101.82 227.15C103.82 225.85 106.02 227.52 106.91 229.44C108.05 231.91 107.91 234.92 108.1 237.59C108.45 244.13 108.75 250.69 108.67 257.24C108.67 260.46 108.49 263.67 108.22 266.87C108.078 269.546 107.659 272.2 106.97 274.79C106.23 277.17 104.88 279.19 102.56 279.97C99.82 280.88 96.7 280.97 93.85 281.29C81.6633 282.73 69.4333 283.7 57.16 284.2C52.33 284.4 46.07 285.65 42.23 281.74C39.23 278.74 38.07 274.14 37.3 270C36.05 263.22 35.3 256.25 34.53 249.41C33.6567 242.123 32.89 234.82 32.23 227.5C32.04 225.42 28.95 225.42 29.15 227.5C30.44 241.67 31.77 255.98 34.15 270C34.96 274.77 36.31 279.83 39.47 283.5C43.47 288.16 49.21 287.78 54.69 287.59C68.47 287.103 82.22 286.02 95.94 284.34C98.94 283.98 102.23 283.92 104.94 282.49C107.113 281.207 108.744 279.177 109.53 276.78C110.419 274.101 110.957 271.318 111.13 268.5C111.49 264.88 111.67 261.23 111.73 257.58C111.907 249.488 111.633 241.392 110.91 233.33Z" fill="#010101"/>
<path d="M97.37 265.11C95.2879 267.453 93.5994 270.117 92.37 273C91.53 274.9 94.21 276.56 95.03 274.66C96.1494 272.025 97.6858 269.587 99.58 267.44C100.91 265.89 98.75 263.58 97.37 265.11Z" fill="#010101"/>
<path d="M100.58 268.51C99.1755 270.114 98.0101 271.913 97.12 273.85C96.25 275.73 98.91 277.4 99.78 275.51C100.554 273.816 101.564 272.241 102.78 270.83C104.1 269.28 101.92 267 100.58 268.51Z" fill="#010101"/>
<path d="M41.35 233.78C40.8433 232.093 40.3267 230.407 39.8 228.72C39.6846 228.322 39.4159 227.986 39.0531 227.787C38.6902 227.587 38.2628 227.54 37.865 227.655C37.4672 227.77 37.1315 228.039 36.9317 228.402C36.732 228.765 36.6846 229.192 36.8 229.59C37.3133 231.27 37.83 232.957 38.35 234.65C38.4654 235.048 38.734 235.384 39.0969 235.583C39.4598 235.783 39.8872 235.83 40.285 235.715C40.6828 235.6 41.0185 235.331 41.2182 234.968C41.418 234.605 41.4654 234.178 41.35 233.78Z" fill="#010101"/>
<path d="M44.38 229.61C44.2406 228.69 43.8993 227.812 43.3806 227.039C42.862 226.266 42.1788 225.618 41.38 225.14C39.65 224.14 38.1 226.93 39.83 227.97C40.266 228.237 40.6338 228.602 40.9046 229.036C41.1753 229.47 41.3415 229.961 41.39 230.47C41.4359 230.667 41.5202 230.853 41.6381 231.017C41.7559 231.182 41.905 231.321 42.0768 231.428C42.2486 231.535 42.4397 231.607 42.6393 231.64C42.8389 231.673 43.043 231.666 43.24 231.62C43.6511 231.494 43.9984 231.216 44.2105 230.842C44.4225 230.468 44.4832 230.027 44.38 229.61Z" fill="#010101"/>
<path d="M107.72 116.33C102.92 106.77 94.85 98.33 84.72 94.5C76.64 91.43 67.08 91.4 59.27 95.31C50.27 99.84 43.27 108.59 35.66 115.11L35.37 115.35C34.37 116.47 33.37 117.56 32.37 118.63C31.4281 119.77 30.3763 120.815 29.23 121.75C28.23 122.75 27.23 123.65 26.16 124.56C22.41 127.82 18.38 130.56 14.49 133.63C11.86 135.69 9.32001 138.12 8.92001 141.63C8.39001 146.19 10.42 151.24 12.92 154.91C14.7782 157.417 16.9078 159.711 19.27 161.75C22.32 163.84 25.48 165.75 28.43 167.55C36.35 172.38 45.43 175.24 53.93 170.15C62.93 164.78 68.93 155.61 78.41 150.66C84.21 147.66 90.18 145.43 95.19 141.58C95.846 141.906 96.5624 142.092 97.294 142.126C98.0256 142.161 98.7563 142.043 99.44 141.78C109.2 138.26 111.92 124.68 107.72 116.33Z" fill="#2B2C2B"/>
<path d="M63.85 104C70.18 101.84 80.33 101.57 86.85 105.42C93.42 107.78 100.92 111.9 104.28 118.17C104.755 118.925 104.991 119.806 104.959 120.698C104.927 121.589 104.628 122.451 104.1 123.17V123.45C103.995 125.856 102.95 128.126 101.19 129.77C101.19 129.77 101.19 129.84 101.19 129.87C100.741 130.637 100.208 131.352 99.6 132C99.4346 132.268 99.2844 132.545 99.15 132.83L98.85 134.02V134.47C98.8774 134.967 98.9716 135.458 99.13 135.93C99.13 136.03 99.13 136.13 99.13 136.23C102.35 140.16 103.63 145.15 99.59 149.79C94.29 155.87 84.79 155.62 77.48 154.26C77.4897 154.316 77.4897 154.374 77.48 154.43C77.3939 155.538 76.9559 156.589 76.23 157.43C76.1689 157.518 76.1021 157.601 76.03 157.68C75.5873 158.357 74.9906 158.919 74.2888 159.321C73.5869 159.723 72.7998 159.953 71.992 159.992C71.1842 160.031 70.3786 159.878 69.6413 159.546C68.904 159.213 68.2558 158.711 67.75 158.08C66.8915 157.006 66.4605 155.653 66.54 154.28C66.54 153.69 66.63 153.09 66.67 152.5C66.7117 152.056 66.8091 151.619 66.96 151.2C63.0373 149.607 59.4178 147.35 56.26 144.53C51.49 140.19 45.26 131.85 50.07 125.53C48.28 116 54.49 107.16 63.85 104Z" fill="#FCD1AF"/>
<path d="M46.5 113.83C49.0105 108.782 52.8929 104.543 57.702 101.6C62.5111 98.6567 68.0522 97.1283 73.69 97.19C73.4683 96.0917 73.5361 94.9546 73.8868 93.8904C74.2374 92.8261 74.8589 91.8714 75.69 91.12C76.5843 90.3835 77.6952 89.9603 78.8529 89.9151C80.0105 89.87 81.1511 90.2054 82.1 90.87C83.4472 91.7896 84.6793 92.8673 85.77 94.08C86.731 93.1729 87.9705 92.6173 89.287 92.5034C90.6036 92.3895 91.9201 92.7239 93.0226 93.4524C94.1252 94.1809 94.9492 95.2606 95.3608 96.5164C95.7724 97.7722 95.7474 99.1302 95.29 100.37C94.9021 101.393 94.3773 102.358 93.73 103.24C100.2 107.17 105.43 112.87 106.23 119.99C107 126.74 96.65 128.68 95.88 121.9C95 113.9 83 108.75 76.16 107.9C68.52 107 60 110.25 56.4 117.43C53.36 123.42 43.43 119.9 46.5 113.83Z" fill="#DEDEDD"/>
<path d="M42.64 116C53.35 112.4 61.86 104.33 73.64 104.15C86.52 103.94 97.47 111.75 105.35 121.37C109.28 126.17 102.91 132.24 98.48 129.26C98.1569 129.18 97.8421 129.07 97.54 128.93C89.1082 125.113 80.4204 121.888 71.54 119.28C70.6662 119.079 69.8746 118.616 69.2708 117.953C68.6669 117.29 68.2794 116.459 68.16 115.57L67.83 115.67C67.6404 116.371 67.297 117.021 66.8248 117.573C66.3526 118.125 65.7634 118.564 65.1 118.86C61.155 120.464 57.1138 121.82 53 122.92C51.094 123.943 49.1114 124.815 47.07 125.53C40.75 127.66 36.22 118.1 42.64 116Z" fill="#2B2C2B"/>
<path d="M49.34 206.25C51.73 206.25 55 206.78 57.34 206.11C60.14 205.31 60.08 203.74 61 200.9L66.26 184.9C66.4668 184.105 66.8938 183.386 67.4918 182.823C68.0897 182.26 68.8344 181.878 69.64 181.72C70.2935 181.378 71.0172 181.192 71.7544 181.177C72.4917 181.161 73.2227 181.316 73.89 181.63L84.57 186.16C87.57 187.41 91.04 188.39 93.57 190.49C98.42 194.57 97.65 201.98 97.91 207.65C98.23 214.42 87.81 215.88 87.5 209.07C87.38 206.62 87.34 204.16 87.16 201.72C86.94 198.8 86.74 198.72 84.16 197.45C81.06 195.94 77.84 194.64 74.62 193.33C73.68 196.217 72.7367 199.103 71.79 201.99C70.66 205.46 69.92 209.99 67.51 212.88C63.12 218.15 54.13 216.88 48.12 216.77C41.25 216.67 42.64 206.15 49.34 206.25Z" fill="#FCD1AF"/>
<path d="M92.14 209.1C92.7473 209.44 93.3872 209.718 94.05 209.93C94.4125 209.96 94.773 210.01 95.13 210.08C95.3858 210.11 95.6442 210.11 95.9 210.08C96.3937 209.318 97.0943 208.713 97.9197 208.336C98.7452 207.959 99.6611 207.825 100.56 207.95C103.06 208.26 105.7 211 105.01 213.72C104.42 216.08 104.01 218.34 101.48 219.4C100.101 219.967 98.6382 220.305 97.15 220.4C94.0501 220.664 90.937 220.073 88.15 218.69C86.9109 218.132 85.933 217.12 85.4177 215.862C84.9024 214.605 84.8889 213.197 85.38 211.93C86.43 209.45 89.65 207.83 92.14 209.1Z" fill="#754E25"/>
<path d="M43.58 206.35C44.7027 206.217 45.8381 206.453 46.8155 207.021C47.7929 207.589 48.5595 208.459 49 209.5C49.5303 210.913 49.8307 212.402 49.89 213.91C50.945 214.549 51.7371 215.544 52.1239 216.716C52.5107 217.887 52.4668 219.158 52 220.3C51.6565 221.026 51.1608 221.67 50.5465 222.187C49.9323 222.705 49.2138 223.085 48.44 223.3C47.69 223.88 46.8062 224.261 45.87 224.41C44.8484 224.545 43.8095 224.414 42.8532 224.03C41.8969 223.647 41.0555 223.023 40.41 222.22C39.6109 221.708 38.974 220.979 38.5738 220.118C38.1736 219.258 38.0266 218.301 38.15 217.36C38.49 215.17 38.83 212.99 39.15 210.8C39.3118 209.681 39.8301 208.643 40.6281 207.841C41.4261 207.04 42.4613 206.517 43.58 206.35Z" fill="#754E25"/>
<path d="M94.28 133.7C94.6248 133.825 94.9059 134.081 95.0616 134.413C95.2172 134.745 95.2346 135.125 95.11 135.47C94.9853 135.815 94.7288 136.096 94.3969 136.252C94.065 136.407 93.6848 136.425 93.34 136.3C92.9952 136.175 92.7141 135.919 92.5584 135.587C92.4028 135.255 92.3853 134.875 92.51 134.53C92.6347 134.185 92.8912 133.904 93.2231 133.748C93.555 133.593 93.9352 133.575 94.28 133.7Z" fill="#010101"/>
<path d="M70 130.11C70.1088 129.968 70.2538 129.857 70.42 129.79L70.75 129.68C70.9919 129.638 71.2407 129.662 71.47 129.75L71.79 129.92C71.9864 130.056 72.142 130.242 72.24 130.46L72.35 130.68C72.4295 130.842 72.4706 131.02 72.47 131.2C72.4859 131.384 72.4609 131.569 72.397 131.741C72.333 131.914 72.2316 132.071 72.1 132.2C71.9939 132.341 71.8525 132.451 71.69 132.52L71.35 132.63C71.112 132.67 70.8678 132.65 70.64 132.57L70.31 132.4C70.1162 132.262 69.9612 132.076 69.86 131.86L69.75 131.63C69.6254 131.288 69.6254 130.912 69.75 130.57C69.791 130.397 69.8773 130.238 70 130.11Z" fill="#010101"/>
<path d="M81.67 143.73C82.7823 143.575 83.8435 143.165 84.77 142.53C84.9894 142.453 85.1872 142.325 85.3467 142.156C85.5062 141.987 85.6227 141.782 85.6864 141.559C85.7501 141.335 85.7592 141.1 85.7128 140.872C85.6664 140.644 85.566 140.431 85.42 140.25C84.49 138.5 83.62 137.02 83.93 134.94C84.0524 134.1 84.3392 133.292 84.7739 132.563C85.2086 131.834 85.7827 131.198 86.4634 130.691C87.1442 130.184 87.9182 129.816 88.7412 129.608C89.5642 129.4 90.4201 129.357 91.26 129.48C91.6835 129.537 92.0994 129.641 92.5 129.79C94.17 130.35 93.24 132.95 91.57 132.39C90.6537 132.047 89.6385 132.081 88.7477 132.486C87.8569 132.891 87.1635 133.634 86.82 134.55C86.04 136.75 87.6 138.02 88.28 139.93C89.7 143.93 84.66 146.33 81.44 146.48C79.68 146.57 79.91 143.81 81.67 143.73Z" fill="#010101"/>
<path d="M69.79 86.86C71.79 84.86 74.79 85.5 76.87 87.1C78.888 88.7713 80.786 90.5825 82.55 92.52C83.13 90.7 84.14 89.08 86.05 88.52C87.26 88.2046 88.5297 88.1967 89.7435 88.4971C90.9573 88.7975 92.0768 89.3967 93 90.24C97.21 93.92 96.43 99.95 93.07 103.84C93.2597 103.871 93.4425 103.936 93.61 104.03C100.04 107.78 104.968 113.648 107.55 120.63C108.16 122.3 105.68 123.47 105.05 121.8C102.666 115.262 98.0663 109.767 92.05 106.27C91.832 106.161 91.6554 105.984 91.5471 105.766C91.4388 105.547 91.4047 105.299 91.45 105.06C91.2513 105.059 91.0549 105.017 90.8728 104.938C90.6907 104.858 90.5268 104.743 90.391 104.597C90.2553 104.452 90.1506 104.281 90.0834 104.094C90.0161 103.907 89.9878 103.708 90 103.51C90.0024 103.323 90.0416 103.139 90.1154 102.967C90.1892 102.796 90.2961 102.64 90.43 102.51C93.05 100.01 94.31 95.6 91.61 92.69C91.0886 92.1105 90.4422 91.6573 89.7198 91.3645C88.9973 91.0717 88.2177 90.947 87.44 91C85.58 91.19 85.03 93.21 84.75 94.89C84.8274 95.1122 84.8353 95.3527 84.7728 95.5795C84.7103 95.8063 84.5803 96.0088 84.4 96.16C84.2517 96.3793 84.0443 96.552 83.8018 96.6582C83.5593 96.7643 83.2917 96.7995 83.03 96.7598C82.7683 96.72 82.5232 96.6068 82.3232 96.4334C82.1232 96.26 81.9765 96.0334 81.9 95.78L77 90.91C75.8 89.72 73.25 87.02 71.56 89.01C69.11 91.9 70.14 96.61 72.56 99.08C73.81 100.33 71.7 102.08 70.45 100.85C67 97.38 66.1 90.57 69.79 86.86Z" fill="#010101"/>
<path d="M78.75 148.4C79.83 146.8 77.86 144.91 76.75 143.99C75.05 142.61 73.23 141.37 71.47 140.07C70.06 139.07 68.67 137.93 67.24 136.91V136.84C67.0866 136.43 66.8515 136.056 66.549 135.739C66.2464 135.423 65.8827 135.171 65.48 135L65.26 134.87C64.5436 134.528 63.7383 134.419 62.9567 134.557C62.175 134.695 61.456 135.073 60.9 135.64C60.4575 135.8 60.0521 136.049 59.7084 136.37C59.3646 136.691 59.0896 137.079 58.9 137.51C58.7712 137.697 58.692 137.914 58.67 138.14C57.84 140.94 59.37 144.14 61.29 146.14C63.7559 148.406 66.8532 149.867 70.17 150.33C71.7082 150.6 73.2818 150.6 74.82 150.33C76.1 150.15 78 149.58 78.75 148.4ZM76.52 147.12V147.18C76.8533 147.027 76.8933 147.027 76.64 147.18L76.49 147.29C76.4948 147.233 76.4948 147.177 76.49 147.12H76.52Z" fill="#010101"/>
<path d="M67 144.7C66.4223 143.383 65.5376 142.224 64.42 141.32C64.1626 141.072 63.8585 140.879 63.5254 140.75C63.1924 140.621 62.837 140.56 62.48 140.57C62.1494 140.477 61.7972 140.498 61.48 140.63C61.1526 140.721 60.8701 140.93 60.6859 141.215C60.5016 141.501 60.4284 141.844 60.48 142.18C60.453 142.917 60.6481 143.645 61.04 144.27C61.81 145.87 63.51 147.72 65.04 147.65C65.2296 147.725 65.433 147.758 65.6365 147.748C65.84 147.737 66.039 147.683 66.22 147.59C67.26 147.08 67.32 145.66 67 144.7Z" fill="#CE2028"/>
<path d="M73.69 142.41C72.2376 141.171 70.6857 140.054 69.05 139.07C67.76 138.3 66.67 140.37 67.95 141.16C69.4153 142.041 70.8036 143.045 72.1 144.16C73.23 145.1 74.84 143.39 73.69 142.41Z" fill="#E5E5E4"/>
<path d="M80.75 153.59L81.26 153.52C81.5379 153.481 81.8202 153.549 82.05 153.71C87.58 154.38 93.49 153.61 97.75 149.71C98.7475 148.811 99.6157 147.777 100.33 146.64C100.78 145.924 101.076 145.122 101.2 144.286C101.324 143.449 101.273 142.596 101.05 141.78C100.58 139.62 99.05 137.59 98.84 135.37V135.3C98.785 134.678 98.785 134.052 98.84 133.43C98.8581 133.21 98.9417 133.001 99.08 132.83C99.1596 132.574 99.3376 132.36 99.5748 132.235C99.812 132.111 100.089 132.085 100.345 132.165C100.601 132.245 100.815 132.423 100.94 132.66C101.064 132.897 101.09 133.174 101.01 133.43V133.8C101.121 134.001 101.16 134.234 101.12 134.46C100.88 136 101.83 137.31 102.4 138.67C103.041 140.132 103.421 141.696 103.52 143.29C103.67 146.51 101.52 149.34 99.22 151.4C94.28 155.87 87.22 156.71 80.92 155.74C79.71 155.59 79.45 153.75 80.75 153.59Z" fill="#010101"/>
<path d="M52.5 185C54.62 180.2 54.96 175.38 55.58 170.25C55.67 169.54 55.79 168.82 55.93 168.11C55.541 164.832 56.2439 161.518 57.93 158.68C61.61 152.88 68.58 153.68 74.77 154.63C75.3566 154.67 75.9387 154.761 76.51 154.9C77.3 155.02 78.08 155.13 78.83 155.22C79.4781 155.267 80.1045 155.474 80.6526 155.823C81.2007 156.173 81.6534 156.652 81.97 157.22C82.6525 157.7 83.1723 158.377 83.46 159.16C83.8 160.16 84.12 161.08 84.46 162.05C85.0302 162.671 85.4298 163.429 85.62 164.25C87.6598 172.658 91.0795 180.67 95.74 187.96C96.307 188.793 96.6028 189.781 96.5866 190.789C96.5705 191.797 96.2434 192.775 95.65 193.59C90.65 201.71 83.28 210.59 72.65 208.26C67.91 207.26 64.31 203.54 59.65 202.1C55.65 200.85 49.54 202.1 47.91 197.1C46.55 192.72 50.86 188.66 52.5 185Z" fill="#DEDEDD"/>
<path d="M48.39 211.6C46.53 211.79 46.51 214.71 48.39 214.51C51.13 214.23 53.8 217.12 52.66 219.93C51.66 222.32 47.17 221.72 45.38 221C43.59 220.28 42.88 223.12 44.6 223.82C48.2 225.27 54.51 224.82 55.6 220.26C56.69 215.7 53 211.12 48.39 211.6Z" fill="#010101"/>
<path d="M107.63 218.7C108.434 217.18 108.721 215.438 108.447 213.74C108.172 212.042 107.352 210.48 106.11 209.29C104.71 208.04 102.63 210.1 104.03 211.38C104.865 212.168 105.403 213.22 105.554 214.358C105.705 215.496 105.46 216.651 104.86 217.63C103.45 220.08 100.55 221.29 97.86 221.57C96.6688 221.67 95.4712 221.67 94.28 221.57L88.68 220.38C87.4105 219.975 86.3397 219.108 85.68 217.95C84.89 216.33 85.74 214.51 86.42 213.01C87.19 211.31 84.67 209.82 83.89 211.53C82.99 213.53 82.11 215.62 82.56 217.84C82.6597 218.312 82.8211 218.77 83.04 219.2L82.21 219.03C75.46 217.64 68.4 216.4 61.73 218.78C59.23 219.68 60.3 223.7 62.83 222.78C69.34 220.46 76.13 221.99 82.67 223.36L104 227.88C106.62 228.42 107.75 224.4 105.11 223.88L102.47 223.35C104.687 222.46 106.515 220.812 107.63 218.7Z" fill="#010101"/>
<path d="M80.93 207.36C76.5874 208.611 71.9293 208.134 67.93 206.03C66.1432 204.984 64.5052 203.703 63.06 202.22C62.2602 201.473 61.2906 200.931 60.2349 200.642C59.1792 200.353 58.069 200.325 57 200.56C54.36 200.94 51.94 201.21 49.42 200.02C48.3641 199.644 47.4774 198.902 46.92 197.93C46.5 196.85 47.19 195.8 47.79 194.93C49.2772 193.019 50.6145 190.997 51.79 188.88C52.864 186.694 53.6634 184.383 54.17 182C54.55 180.16 51.73 179.37 51.35 181.22C50.4027 185.43 48.5042 189.367 45.8 192.73C44.65 194.22 43.63 195.91 43.89 197.86C44.0698 198.756 44.449 199.599 44.9995 200.328C45.5501 201.057 46.2577 201.652 47.07 202.07C48.8686 203.132 50.8948 203.749 52.98 203.87C55.07 204 57.31 202.97 59.35 203.37C60.3036 203.675 61.141 204.265 61.75 205.06C62.4561 205.756 63.2078 206.404 64 207C66.5125 208.833 69.4096 210.069 72.4713 210.615C75.5331 211.161 78.6789 211.002 81.67 210.15C81.9899 210.011 82.2493 209.761 82.4012 209.447C82.5531 209.133 82.5874 208.775 82.498 208.437C82.4085 208.1 82.2011 207.806 81.9135 207.608C81.6259 207.411 81.277 207.323 80.93 207.36Z" fill="#010101"/>
<path d="M73.07 213.29C67.1247 213.29 61.3129 211.527 56.3696 208.224C51.4262 204.921 47.5733 200.226 45.2982 194.733C43.023 189.241 42.4277 183.197 43.5876 177.366C44.7475 171.535 47.6104 166.178 51.8144 161.974C56.0183 157.77 61.3745 154.907 67.2056 153.748C73.0366 152.588 79.0807 153.183 84.5735 155.458C90.0662 157.733 94.7609 161.586 98.064 166.53C101.367 171.473 103.13 177.285 103.13 183.23C103.122 191.2 99.9525 198.841 94.3168 204.477C88.6812 210.112 81.04 213.282 73.07 213.29ZM73.07 169C70.2556 169 67.5043 169.835 65.1642 171.398C62.8241 172.962 61.0002 175.184 59.9232 177.784C58.8462 180.385 58.5644 183.246 59.1134 186.006C59.6625 188.766 61.0178 191.302 63.0079 193.292C64.998 195.282 67.5335 196.638 70.2939 197.187C73.0542 197.736 75.9154 197.454 78.5156 196.377C81.1158 195.3 83.3382 193.476 84.9018 191.136C86.4654 188.796 87.3 186.044 87.3 183.23C87.2973 179.457 85.7973 175.839 83.1292 173.171C80.4611 170.503 76.8432 169.003 73.07 169Z" fill="#384A7A"/>
<path d="M92.16 187.84C90.1817 187.832 88.2781 187.083 86.8237 185.742C85.3694 184.401 84.4697 182.564 84.3017 180.593C84.1337 178.622 84.7095 176.659 85.9158 175.091C87.1221 173.523 88.8716 172.463 90.82 172.12L222 149.4C224.037 149.114 226.105 149.632 227.767 150.843C229.429 152.055 230.554 153.866 230.905 155.892C231.256 157.919 230.804 160.003 229.646 161.702C228.488 163.402 226.714 164.585 224.7 165L93.52 187.73C93.0701 187.801 92.6155 187.838 92.16 187.84Z" fill="#384A7A"/>
<path d="M221.32 190.94C219.457 190.939 217.654 190.281 216.229 189.08C214.804 187.88 213.848 186.216 213.53 184.38L209.53 161.38C209.316 160.341 209.313 159.269 209.521 158.228C209.729 157.187 210.144 156.199 210.742 155.322C211.339 154.445 212.107 153.696 212.999 153.122C213.892 152.547 214.89 152.158 215.936 151.977C216.982 151.796 218.054 151.827 219.087 152.068C220.121 152.309 221.095 152.756 221.953 153.381C222.81 154.007 223.534 154.798 224.079 155.708C224.625 156.618 224.982 157.629 225.13 158.68L229.13 181.68C229.487 183.749 229.008 185.874 227.799 187.59C226.589 189.306 224.748 190.471 222.68 190.83C222.23 190.901 221.775 190.938 221.32 190.94Z" fill="#384A7A"/>
<path d="M196.77 195.19C194.899 195.19 193.089 194.527 191.661 193.318C190.233 192.11 189.28 190.435 188.97 188.59L184.9 164.41C184.561 162.343 185.054 160.225 186.273 158.521C187.491 156.817 189.335 155.665 191.4 155.317C193.466 154.969 195.586 155.454 197.295 156.665C199.004 157.877 200.164 159.716 200.52 161.78L204.59 186C204.937 188.071 204.447 190.196 203.229 191.906C202.01 193.616 200.161 194.772 198.09 195.12C197.653 195.183 197.211 195.206 196.77 195.19Z" fill="#384A7A"/>
<path d="M192.8 206.18C194.72 200.8 196.6 195.4 198.58 190.11C201.88 181.36 187.83 177.55 184.58 186.25L176 209.05C173.92 214.58 172.15 221.46 169 226.94L168.59 226.73C163.52 224.58 157.94 223.25 152.7 221.6C143.7 218.75 140.07 232.6 148.83 235.6L149.19 235.73C149.327 235.895 149.478 236.049 149.64 236.19C153.32 239.29 157.33 242.44 159.98 246.54C161.37 248.69 162.3 251.07 163.48 253.31C162.57 256.78 163.89 260.7 168.43 261.69C176.34 263.43 188.14 261.96 193.95 255.54C200.76 248.02 194.81 235.84 192.6 227.62C192.467 227.141 192.283 226.679 192.05 226.24C192.05 225.24 192.05 224.29 191.98 223.32C192.127 217.613 192.4 211.9 192.8 206.18Z" fill="#ACB3C3"/>
<path d="M192 194.58C189.832 193.561 187.44 193.11 185.05 193.27C183.408 193.232 181.771 193.078 180.15 192.81C179.39 192.2 178.72 191.5 178.02 190.81C177.229 189.607 176.107 188.659 174.79 188.08C173.618 186.903 172.132 186.087 170.51 185.73C168.189 184.782 165.644 184.525 163.18 184.99C160.646 185.247 158.178 185.951 155.89 187.07C151.648 188.478 147.695 190.64 144.22 193.45C143.196 194.27 142.264 195.199 141.44 196.22C140.296 197.214 139.288 198.354 138.44 199.61C137.148 201.488 136.312 203.642 136 205.9C135.604 206.598 135.333 207.359 135.2 208.15C133.42 218.32 136.81 229.05 147.14 233.05C152.31 235.05 158.33 234.54 164.2 233.05C164.614 234.473 165.494 235.716 166.697 236.58C167.901 237.445 169.359 237.881 170.84 237.82C176.57 237.82 178.79 232.36 177.51 228.14L179.14 227.39C187.3 223.64 197.56 215.89 198.19 206.02C198.382 203.718 197.899 201.409 196.8 199.378C195.7 197.346 194.032 195.678 192 194.58Z" fill="#FDD4A6"/>
<path d="M172.94 179.25C171.795 179.242 170.664 179.506 169.64 180.02L169.09 179.85C163.37 178.35 158.67 180.01 153.45 182.35C148.23 184.69 142.45 187.22 138.08 191.07C134.35 194.36 132.5 198.75 130.9 203.37C129.48 207.45 126.82 213.92 129.28 218.05L129.15 218.16C127.85 219.567 127.089 221.387 127 223.3L127.26 225.24C127.598 226.452 128.242 227.558 129.13 228.45L130.6 229.58C131.712 230.236 132.979 230.582 134.27 230.58H134.43C135.402 230.619 136.368 230.401 137.23 229.95C138.11 229.621 138.909 229.108 139.573 228.443C140.238 227.779 140.751 226.98 141.08 226.1C141.099 226.064 141.115 226.028 141.13 225.99C141.408 225.792 141.669 225.571 141.91 225.33C143.207 223.923 143.962 222.102 144.04 220.19C143.98 219.77 143.93 219.35 143.87 218.94C145.058 218.395 146.07 217.528 146.792 216.438C147.513 215.347 147.914 214.077 147.95 212.77C152.09 212.56 154.25 209.42 154.49 206.11C157.9 202.67 161.8 201.6 166.33 200.2L166.75 200.06C167.194 200.152 167.647 200.188 168.1 200.17C170.011 200.087 171.831 199.332 173.24 198.04L174.38 196.57C174.949 195.606 175.291 194.526 175.38 193.41C182.21 191.17 181.42 179.25 172.94 179.25Z" fill="#2B2C2B"/>
<path d="M180 172C179.182 171.003 178.11 170.245 176.898 169.805C175.686 169.365 174.377 169.259 173.11 169.5C172.383 169.543 171.663 169.66 170.96 169.85C169.08 170.36 167.21 170.96 165.38 171.61C163.533 169.863 161.524 168.296 159.38 166.93C158.205 166.079 156.911 165.405 155.54 164.93C145.89 160.26 136.09 167.46 127.97 173.93C119.85 180.4 110.15 193.51 119.74 202.58L119.63 202.76C118.311 203.638 117.227 204.826 116.476 206.222C115.724 207.617 115.327 209.175 115.32 210.76V211.08C115.359 213.581 116.368 215.968 118.136 217.737C119.903 219.506 122.29 220.519 124.79 220.56C134.14 220.56 145.79 212.38 153.48 207.56C163.31 201.221 172.532 193.987 181.03 185.95C186 181.33 184.17 175.23 180 172Z" fill="#ACB3C3"/>
<path d="M192.85 272.13C190.52 268.98 186.56 267.38 182.9 269.52C181.763 270.256 180.832 271.269 180.193 272.464C179.555 273.659 179.23 274.996 179.25 276.35C179.08 276.87 178.9 277.52 178.87 277.64L177.87 281.14L175.96 287.63C173.32 296.63 187.35 300.48 189.96 291.5C190.853 288.5 191.737 285.5 192.61 282.5C193.56 279.21 195.17 275.25 192.85 272.13Z" fill="#FDD4A6"/>
<path d="M160.26 272.74C158.873 277.7 157.247 282.583 155.38 287.39C153.96 291.06 156.94 295.39 160.46 296.34C164.57 297.47 167.96 294.94 169.4 291.26C171.26 286.447 172.89 281.56 174.29 276.6C176.83 267.58 162.8 263.75 160.26 272.74Z" fill="#FDD4A6"/>
<path d="M194.88 250.79C191.44 248.14 186.76 248.85 182.73 249.13C177.416 249.521 172.13 250.229 166.9 251.25C165.26 251.497 163.783 252.381 162.79 253.71C162.226 254.193 161.761 254.78 161.42 255.44C158.19 262.05 154.25 273.68 159.03 280.44C164.42 288.04 172.91 283.44 178.16 277.83C178.441 279.141 179.114 280.337 180.089 281.258C181.063 282.179 182.295 282.783 183.62 282.99C184.568 283.393 185.59 283.59 186.62 283.57C188.387 283.629 190.106 282.994 191.41 281.8C192.302 281.352 193.096 280.731 193.747 279.975C194.397 279.218 194.891 278.339 195.2 277.39C197.67 270.44 202 256.31 194.88 250.79Z" fill="#243454"/>
<path d="M189.37 289.3C188.995 289.29 188.621 289.26 188.25 289.21C187.199 289.018 186.166 288.741 185.16 288.38C181.58 287.09 177.04 289.83 176.22 293.46C175.758 295.317 176.028 297.281 176.974 298.945C177.919 300.609 179.468 301.846 181.3 302.4C183.898 303.3 186.621 303.79 189.37 303.85C191.294 303.834 193.135 303.064 194.497 301.704C195.859 300.344 196.632 298.504 196.65 296.58C196.612 294.661 195.832 292.832 194.475 291.475C193.118 290.118 191.289 289.338 189.37 289.3Z" fill="#2B2C2B"/>
<path d="M172.34 294.63C171.941 293.384 171.236 292.257 170.289 291.354C169.342 290.451 168.184 289.799 166.92 289.46C165.907 287.853 164.305 286.707 162.458 286.266C160.61 285.825 158.664 286.124 157.034 287.101C155.405 288.077 154.222 289.652 153.739 291.489C153.256 293.326 153.511 295.279 154.45 296.93C155.475 299.084 157.043 300.935 159 302.3C160.197 303.105 161.557 303.637 162.983 303.858C164.408 304.08 165.865 303.984 167.25 303.58C169.064 303.049 170.614 301.862 171.6 300.25C172.088 299.408 172.405 298.479 172.532 297.514C172.659 296.549 172.594 295.569 172.34 294.63Z" fill="#2B2C2B"/>
<path d="M201.76 177.43C201.432 176.216 200.79 175.109 199.9 174.22L198.42 173.08C197.307 172.427 196.04 172.082 194.75 172.08H194.44C193.485 172.08 192.54 172.268 191.658 172.633C190.776 172.999 189.974 173.534 189.299 174.209C188.624 174.884 188.089 175.686 187.723 176.568C187.358 177.45 187.17 178.395 187.17 179.35C187.25 180 187.34 180.64 187.43 181.29C187.764 182.504 188.408 183.611 189.3 184.5L190.77 185.63C191.881 186.287 193.149 186.633 194.44 186.63H194.75C195.706 186.631 196.653 186.444 197.536 186.078C198.419 185.713 199.222 185.176 199.897 184.5C200.573 183.824 201.108 183.021 201.472 182.137C201.836 181.253 202.023 180.306 202.02 179.35L201.76 177.43Z" fill="#FDD4A6"/>
<path d="M181.06 199.34C180.721 199.369 180.405 199.525 180.174 199.775C179.944 200.026 179.817 200.354 179.817 200.695C179.817 201.036 179.944 201.364 180.174 201.615C180.405 201.865 180.721 202.021 181.06 202.05C181.399 202.021 181.715 201.865 181.945 201.615C182.176 201.364 182.303 201.036 182.303 200.695C182.303 200.354 182.176 200.026 181.945 199.775C181.715 199.525 181.399 199.369 181.06 199.34Z" fill="#010101"/>
<path d="M165.33 209C164.991 209.029 164.675 209.185 164.445 209.435C164.214 209.686 164.087 210.014 164.087 210.355C164.087 210.696 164.214 211.024 164.445 211.275C164.675 211.525 164.991 211.681 165.33 211.71C165.669 211.681 165.985 211.525 166.215 211.275C166.446 211.024 166.573 210.696 166.573 210.355C166.573 210.014 166.446 209.686 166.215 209.435C165.985 209.185 165.669 209.029 165.33 209Z" fill="#010101"/>
<path d="M184.21 205.42C182.21 204.58 180.21 205.12 178.21 204.66C176.92 204.37 176.4 203.83 176.79 202.58C177.225 201.309 177.834 200.104 178.6 199C179.6 197.53 177.2 196.17 176.25 197.63C175.15 199.29 173.7 201.7 173.87 203.8C174.04 205.9 175.87 207 177.69 207.35C179.51 207.7 182.08 207.08 183.69 208.22C185.69 209.65 185.12 212.42 184 214.22C183.07 215.71 185.42 217.07 186.35 215.59C188.45 212.22 188.33 207.15 184.21 205.42Z" fill="#010101"/>
<path d="M178.38 181C175.46 184.82 171.8 187.88 168.19 191C164.58 194.12 161 197.36 157.19 200.32C149.69 206.21 140.45 209.93 131.46 212.91C129.22 213.65 126.96 214.33 124.69 214.91C122.611 215.623 120.428 215.992 118.23 216C117.263 215.942 116.341 215.57 115.604 214.94C114.868 214.31 114.357 213.457 114.15 212.51C113.948 211.55 113.959 210.557 114.182 209.602C114.405 208.647 114.834 207.752 115.44 206.98C117.9 203.49 122.44 201.8 126.18 200.17C130.25 198.41 134.4 196.84 138.49 195.17C143.021 193.368 147.392 191.19 151.56 188.66C153.711 187.293 155.766 185.779 157.71 184.13C158.66 183.32 159.59 182.49 160.5 181.63C161.41 180.77 162.32 180.11 162.42 178.83C162.425 178.59 162.364 178.353 162.244 178.146C162.124 177.938 161.95 177.766 161.74 177.65C161.477 177.498 161.179 177.418 160.875 177.418C160.571 177.418 160.273 177.498 160.01 177.65C159.777 177.784 159.59 177.986 159.474 178.229C159.358 178.472 159.318 178.744 159.36 179.01C157.888 180.502 156.307 181.883 154.63 183.14C152.657 184.712 150.567 186.132 148.38 187.39C144.263 189.694 139.985 191.7 135.58 193.39C131.21 195.17 126.75 196.87 122.43 198.85C118.52 200.64 114.33 202.85 112.32 206.85C110.6 210.3 110.93 214.85 114.23 217.32C117.98 220.08 123.36 218.09 127.35 216.95C132.207 215.574 136.976 213.905 141.63 211.95C146.384 210.096 150.948 207.788 155.26 205.06C159.799 201.79 164.14 198.254 168.26 194.47C172.67 190.66 177.13 186.97 180.69 182.33C181.78 181 179.42 179.63 178.38 181Z" fill="#010101"/>
<path d="M161.46 162.14C159.106 160.699 156.516 159.683 153.81 159.14C151.069 158.8 148.291 158.921 145.59 159.5C135.773 161.351 126.983 166.755 120.9 174.68C117.3 179.4 114.82 185.22 116 191.24C116.34 192.95 119 192.24 118.63 190.51C116.87 181.58 124.72 172.95 131.5 168.28C135.006 165.854 138.893 164.032 143 162.89C147.75 161.57 152.77 160.97 157.37 163.09C161.77 165.09 167.37 168.28 167.18 173.86C167.12 175.61 169.84 175.61 169.9 173.86C170.12 168.44 165.88 164.56 161.46 162.14Z" fill="#010101"/>
<path d="M198.2 196.62C197.009 195.069 195.47 193.819 193.706 192.973C191.943 192.127 190.005 191.708 188.05 191.75C187.689 191.75 187.343 191.893 187.088 192.148C186.833 192.403 186.69 192.749 186.69 193.11C186.69 193.471 186.833 193.817 187.088 194.072C187.343 194.327 187.689 194.47 188.05 194.47C191.33 194.41 194.92 196.03 196.53 199.03C198.23 202.21 197.6 206.22 196.11 209.35C193.03 215.85 186.39 220.16 180.97 224.55C179.62 225.65 181.55 227.55 182.9 226.47C189.27 221.31 197.13 216.13 199.57 207.84C200.68 204.17 200.54 199.8 198.2 196.62Z" fill="#010101"/>
<path d="M159.05 248.17C158.21 242.42 153.36 239.06 149.24 235.57C147.92 234.44 145.98 236.35 147.32 237.49C151.18 240.76 156.14 243.96 156.46 249.49C156.78 255.02 154.13 260.01 153.55 265.35C153.35 267.08 156.08 267.07 156.26 265.35C156.9 259.56 159.89 254.14 159.05 248.17Z" fill="#010101"/>
<path d="M204 255.6C203.651 253.136 202.598 250.825 200.968 248.945C199.337 247.065 197.199 245.695 194.81 245C188.27 243 181.66 245.51 175.64 248C174.05 248.67 174.75 251.3 176.37 250.62C181.22 248.62 186.45 246.38 191.82 247.1C196.64 247.75 200.38 250.85 201.28 255.71C202.18 260.57 200.09 265.22 196.95 268.78C194.12 271.98 189.11 276.58 184.41 275.52C183.04 275.2 181.98 274.27 180.74 273.67C179.55 273.062 178.184 272.889 176.88 273.18C175.508 273.602 174.202 274.215 173 275L168.5 277.45C166.97 278.28 168.34 280.63 169.88 279.79L173.93 277.59C175.32 276.83 177.04 275.53 178.72 275.84C179.97 276.08 181.04 277.12 182.17 277.65C183.401 278.222 184.755 278.48 186.11 278.4C191.43 278.09 196.38 273.88 199.59 269.91C202.8 265.94 204.8 260.85 204 255.6Z" fill="#010101"/>
<path d="M190.61 172.78C190.35 172.535 190.007 172.399 189.65 172.399C189.293 172.399 188.95 172.535 188.69 172.78C188.436 173.035 188.293 173.38 188.293 173.74C188.293 174.1 188.436 174.445 188.69 174.7C189.313 175.156 189.812 175.761 190.141 176.46C190.469 177.159 190.617 177.929 190.57 178.7C190.5 180.45 193.21 180.44 193.29 178.7C193.343 177.572 193.128 176.447 192.663 175.417C192.197 174.388 191.493 173.484 190.61 172.78Z" fill="#010101"/>
<path d="M197.82 171.17C197.481 171.199 197.165 171.355 196.934 171.605C196.704 171.856 196.577 172.184 196.577 172.525C196.577 172.866 196.704 173.194 196.934 173.445C197.165 173.695 197.481 173.851 197.82 173.88C199.58 173.88 200.82 175.69 201.27 177.22C201.755 178.793 201.755 180.477 201.27 182.05C200.78 183.71 199.61 185.05 198.96 186.63C198.31 188.21 198.3 190.31 197.86 192.11C197.583 192.373 197.412 192.729 197.38 193.11C197.361 193.324 197.394 193.539 197.476 193.737C197.558 193.936 197.686 194.111 197.85 194.25C198.064 194.46 198.341 194.595 198.638 194.634C198.936 194.674 199.238 194.616 199.5 194.47C200.5 193.76 200.5 192.64 200.67 191.53C200.809 190.062 201.145 188.619 201.67 187.24C202.19 186.13 202.97 185.16 203.45 184.02C203.88 183.012 204.163 181.948 204.29 180.86C204.75 176.83 202.6 171.2 197.82 171.17Z" fill="#010101"/>
<path d="M180.59 218.2C180.18 216 177 216.08 175.3 216.26C172.77 216.54 170.25 217.02 167.74 217.41C165.74 217.72 163.68 217.97 161.67 218.31H161.59C160.673 217.908 159.635 217.883 158.7 218.24L158.41 218.31C157.532 218.616 156.772 219.187 156.234 219.945C155.696 220.704 155.408 221.611 155.41 222.54C155.164 223.036 155.024 223.577 154.998 224.129C154.973 224.682 155.062 225.234 155.26 225.75C155.299 226.014 155.413 226.26 155.59 226.46C157.18 229.46 161.09 230.82 164.28 230.82C168.173 230.642 171.921 229.29 175.03 226.94C176.53 225.91 177.837 224.624 178.89 223.14C179.84 221.83 180.9 219.82 180.59 218.2ZM177.71 218.99H177.78C177.93 218.6 177.97 218.58 177.88 218.88C177.89 218.956 177.89 219.034 177.88 219.11L177.71 218.99Z" fill="#010101"/>
<path d="M167.86 224.89C166.297 224.293 164.614 224.073 162.95 224.25C162.11 224.278 161.316 224.638 160.74 225.25C160.397 225.45 160.127 225.755 159.97 226.12C159.785 226.465 159.731 226.866 159.818 227.248C159.904 227.629 160.125 227.968 160.44 228.2C161.021 228.826 161.777 229.262 162.61 229.45C164.56 230.12 167.48 230.23 168.69 228.91C168.904 228.815 169.095 228.677 169.254 228.505C169.412 228.333 169.533 228.131 169.61 227.91C170 226.59 168.92 225.39 167.86 224.89Z" fill="#CE2028"/>
<path d="M171.5 217.48C169.284 217.651 167.086 218.009 164.93 218.55C163.23 218.97 164.03 221.55 165.72 221.15C167.649 220.656 169.616 220.322 171.6 220.15C173.33 220.05 173.25 217.33 171.5 217.48Z" fill="#E5E5E4"/>
<path d="M100.3 166.25C99.52 163.33 98 159.45 94.46 159.42C94.1331 159.412 93.8094 159.485 93.5171 159.631C93.2248 159.778 92.9729 159.994 92.7834 160.26C92.5939 160.527 92.4727 160.836 92.4302 161.16C92.3878 161.484 92.4255 161.814 92.54 162.12C92.2833 162.508 92.0782 162.929 91.93 163.37C91.4692 164.827 91.582 166.406 92.2455 167.783C92.909 169.16 94.073 170.232 95.5 170.78C96.83 171.28 98.58 171.4 99.69 170.34C100.8 169.28 100.66 167.63 100.3 166.25Z" fill="#FCD1AF"/>
<path d="M62.37 179.51C62.15 179.4 61.93 179.29 61.7 179.2C62.1017 178.507 62.3401 177.732 62.3973 176.933C62.4545 176.134 62.3289 175.333 62.03 174.59C60.1636 170.584 59.8362 166.032 61.11 161.8C62.11 158.47 59.44 154.86 56.23 154.14C54.5725 153.802 52.8487 154.12 51.4204 155.026C49.9921 155.932 48.9704 157.357 48.57 159C46.7252 165.391 47.1455 172.223 49.76 178.34C50.5032 180.184 51.9392 181.663 53.76 182.46C53.5907 182.811 53.4503 183.176 53.34 183.55C53.1111 184.287 53.0096 185.058 53.04 185.83C53.0582 186.204 53.1118 186.576 53.2 186.94V186.99C53.2889 187.335 53.4128 187.67 53.57 187.99V188.05C53.746 188.408 53.9642 188.744 54.22 189.05C54.79 189.745 55.4983 190.314 56.3 190.72C63.67 194.73 69.69 183.38 62.37 179.51Z" fill="#FCD1AF"/>
<path d="M104.67 165.51C104.69 162.975 103.851 160.507 102.29 158.51C101.496 157.598 100.474 156.913 99.3283 156.525C98.1829 156.137 96.9551 156.059 95.77 156.3C93.14 156.82 94.25 160.83 96.88 160.3C99.51 159.77 100.39 163.61 100.5 165.49C100.66 168.18 104.83 168.2 104.67 165.51Z" fill="#010101"/>
<path d="M61.53 175.74C58.85 175.56 58.86 179.74 61.53 179.9C65.03 180.13 66.71 184.7 66.2 187.68C65.9178 189.31 65.0676 190.787 63.8 191.85C62.68 192.75 60.42 193.7 58.85 193.16C57.72 191.81 55 192.21 55.17 194.38C55.44 197.93 60.4 197.71 62.94 196.94C64.5094 196.431 65.9416 195.57 67.1271 194.423C68.3126 193.275 69.22 191.872 69.78 190.32C72 184.31 68.41 176.19 61.53 175.74Z" fill="#010101"/>
<path opacity="0.4" d="M0 0V158.75L109.21 43.7L171.6 41.75L284.58 147.05V0H0Z" fill="#4A4028"/>
<path d="M136.22 6.52C135.84 13.3133 135.767 20.1033 136 26.89C136.1 29.57 140.27 29.58 140.17 26.89C139.943 20.1033 140.017 13.3133 140.39 6.52C140.54 3.84 136.37 3.85 136.22 6.52Z" fill="white"/>
<path d="M167.68 36.53C165.851 35.1946 163.789 34.2112 161.6 33.63C161.299 33.2464 160.91 32.9401 160.466 32.7367C160.023 32.5332 159.537 32.4384 159.05 32.46C158.35 32.46 157.65 32.46 156.97 32.46L154.72 32C150.531 31.1932 146.264 30.8577 142 31C142.699 29.7814 142.915 28.3451 142.605 26.9749C142.296 25.6048 141.484 24.4005 140.33 23.6C139.554 23.0802 138.673 22.7387 137.75 22.6C137.75 22.6 137.75 22.55 137.7 22.53C137.072 21.9156 136.229 21.5715 135.35 21.5715C134.472 21.5715 133.628 21.9156 133 22.53C132.526 23.1038 132.132 23.7396 131.83 24.42C130.995 25.327 130.46 26.4693 130.297 27.6914C130.134 28.9134 130.352 30.156 130.92 31.25C127.68 31.6385 124.495 32.4002 121.43 33.52C119.91 34.09 118.1 34.77 116.38 35.52H115.93C115.257 35.5623 114.611 35.7985 114.07 36.2L113.29 36.32C112.696 36.3802 112.14 36.6391 111.712 37.0547C111.284 37.4703 111.008 38.0183 110.93 38.61L110.1 38.67C105.95 38.96 105.79 44.97 109.87 45.28C110.38 46.0949 111.085 46.7701 111.922 47.2449C112.758 47.7197 113.699 47.9792 114.66 48C120.27 48.24 126.02 47.79 131.66 47.51C137.3 47.23 142.96 46.84 148.6 46.32L149.92 46.21L159.28 46.4C159.795 46.3901 160.3 46.258 160.754 46.0146C161.208 45.7712 161.597 45.4234 161.89 45C162.95 44.83 164 44.65 165.03 44.41C168.75 43.58 171.14 39.34 167.68 36.53Z" fill="#AD802C"/>
<path d="M142.69 20.8C138.69 16.01 129.39 17.96 127.32 23.86C126.32 26.77 127.82 29.86 130.02 31.86C131.155 32.8474 132.497 33.566 133.948 33.9625C135.399 34.359 136.921 34.4231 138.4 34.15C141.05 33.73 139.92 29.73 137.3 30.15C134.92 30.52 129.93 28.15 131.38 25.02C132.83 21.89 137.72 21.41 139.74 23.82C141.47 25.8 144.4 22.84 142.69 20.8Z" fill="#010101"/>
<path d="M178.08 33.9C176.68 32.05 174.08 31.28 172.01 30.48C169.233 29.3991 166.374 28.543 163.46 27.92C157.93 26.7402 152.258 26.3596 146.62 26.79C143.96 26.99 143.94 31.16 146.62 30.95C154.624 30.3223 162.669 31.4379 170.2 34.22C171.53 34.72 174.96 35.5 174.91 37.22C174.86 38.94 172.69 40.71 171.6 41.73C168.761 44.3289 165.327 46.1902 161.6 47.15C153.94 49.31 145.6 49.27 137.66 49.51C129.92 49.75 121.5 50.34 114.16 47.36C112.33 46.62 110.16 45.56 109.23 43.68C108.23 41.6 109.65 40.08 111.31 38.98C115.291 36.4257 119.548 34.3291 124 32.73C126.5 31.8 125.41 27.73 122.89 28.73C117.963 30.4365 113.261 32.7367 108.89 35.58C105.4 37.98 103.42 41.73 105.56 45.81C107.7 49.89 112.89 51.7 117.07 52.67C121.737 53.621 126.501 54.0105 131.26 53.83C136.707 53.7833 142.153 53.59 147.6 53.25C152.45 53.0936 157.273 52.464 162 51.37C166.437 50.2772 170.55 48.1453 174 45.15C176.94 42.58 181.06 37.85 178.08 33.9Z" fill="#010101"/>
</g>
<rect x="2.5" y="2.5" width="279.58" height="315" stroke="#2B2B2B" stroke-width="5"/>
<defs>
<clipPath id="clip0">
</clipPath>
</defs>
</svg>
