<svg width="38" height="38" viewBox="0 0 38 38" fill="none" xmlns="http://www.w3.org/2000/svg">
<path d="M28.3892 19.6333V29.1333C28.385 29.6905 28.1618 30.2238 27.7678 30.6178C27.3738 31.0118 26.8406 31.235 26.2833 31.2391H7.39416C6.83566 31.2391 6.30003 31.0173 5.90511 30.6224C5.51019 30.2274 5.28833 29.6918 5.28833 29.1333V13.1575C5.2904 12.883 5.34651 12.6116 5.45347 12.3589C5.56042 12.1061 5.71611 11.8769 5.91166 11.6842C6.1072 11.4916 6.33877 11.3394 6.59314 11.2363C6.84751 11.1332 7.1197 11.0812 7.39416 11.0833H19.7283" stroke="#846D6D" stroke-width="2" stroke-linecap="round" stroke-linejoin="round"/>
<path d="M9.07251 27.4867L12.8725 23.6867L15.39 26.22L20.4408 21.1692L24.225 24.9534" stroke="#846D6D" stroke-width="2" stroke-linecap="round" stroke-linejoin="round"/>
<path d="M12.5082 18.2716C13.304 18.2716 13.949 17.6265 13.949 16.8307C13.949 16.035 13.304 15.3899 12.5082 15.3899C11.7125 15.3899 11.0674 16.035 11.0674 16.8307C11.0674 17.6265 11.7125 18.2716 12.5082 18.2716Z" stroke="white" stroke-width="2" stroke-linecap="round" stroke-linejoin="round"/>
<path d="M24.0508 11.0674H32.7116" stroke="#846D6D" stroke-width="2" stroke-linecap="round" stroke-linejoin="round"/>
<path d="M28.3892 15.3901V6.72925" stroke="#846D6D" stroke-width="2" stroke-linecap="round" stroke-linejoin="round"/>
</svg>
